<svg width="16" height="16" viewBox="0 0 16 16" fill="none" xmlns="http://www.w3.org/2000/svg">
<path d="M3.23729 12.5521L3.70994 12.7152L3.8097 12.4262L3.5978 12.2057L3.23729 12.5521ZM2.76108 13.9321L2.28843 13.769L2.28843 13.769L2.76108 13.9321ZM3.00418 14.1899L3.13928 14.6713H3.13928L3.00418 14.1899ZM4.71878 13.7087L4.96726 13.2749L4.78543 13.1707L4.58368 13.2273L4.71878 13.7087ZM14.0764 7.98765C14.0764 11.3501 11.3506 14.0759 7.98814 14.0759V15.0759C11.9029 15.0759 15.0764 11.9024 15.0764 7.98765H14.0764ZM7.98814 1.89941C11.3506 1.89941 14.0764 4.62521 14.0764 7.98765H15.0764C15.0764 4.07293 11.9029 0.899414 7.98814 0.899414V1.89941ZM1.8999 7.98765C1.8999 4.62521 4.6257 1.89941 7.98814 1.89941V0.899414C4.07341 0.899414 0.899902 4.07293 0.899902 7.98765H1.8999ZM3.5978 12.2057C2.5458 11.111 1.8999 9.62527 1.8999 7.98765H0.899902C0.899902 9.89381 1.65298 11.6251 2.87678 12.8986L3.5978 12.2057ZM3.23373 14.0952L3.70994 12.7152L2.76464 12.389L2.28843 13.769L3.23373 14.0952ZM2.86908 13.7085C3.10212 13.6431 3.31268 13.8664 3.23373 14.0952L2.28843 13.769C2.10419 14.3029 2.59551 14.8239 3.13928 14.6713L2.86908 13.7085ZM4.58368 13.2273L2.86907 13.7085L3.13928 14.6713L4.85388 14.1902L4.58368 13.2273ZM7.98814 14.0759C6.8878 14.0759 5.85705 13.7844 4.96726 13.2749L4.4703 14.1426C5.50736 14.7366 6.70888 15.0759 7.98814 15.0759V14.0759Z" fill="#2A54C3"/>
<circle cx="4.46125" cy="8.22444" r="0.5" fill="#2A54C3" stroke="#2A54C3" stroke-width="0.411765"/>
<circle cx="7.9886" cy="8.22444" r="0.5" fill="#2A54C3" stroke="#2A54C3" stroke-width="0.411765"/>
<circle cx="11.5159" cy="8.22444" r="0.5" fill="#2A54C3" stroke="#2A54C3" stroke-width="0.411765"/>
</svg>
