<svg width="14" height="14" viewBox="0 0 14 14" fill="none" xmlns="http://www.w3.org/2000/svg">
<path fill-rule="evenodd" clip-rule="evenodd" d="M11.0593 11.6298H8.46037C8.34842 11.6298 8.24106 11.6743 8.16191 11.7534C8.08275 11.8326 8.03828 11.94 8.03828 12.0519C8.03828 12.1638 8.08275 12.2712 8.16191 12.3504C8.24106 12.4295 8.34842 12.474 8.46037 12.474H12.078C12.1899 12.474 12.2973 12.4295 12.3764 12.3504C12.4556 12.2712 12.5001 12.1638 12.5001 12.0519V8.43383C12.5001 8.32189 12.4556 8.21453 12.3764 8.13538C12.2973 8.05622 12.1899 8.01175 12.078 8.01175C11.966 8.01175 11.8587 8.05622 11.7795 8.13538C11.7003 8.21453 11.6559 8.32189 11.6559 8.43383V11.0327L8.73276 8.11249C8.65311 8.03564 8.54647 7.99314 8.4358 7.99416C8.32513 7.99517 8.21929 8.03961 8.14106 8.11791C8.06284 8.1962 8.0185 8.30208 8.01759 8.41275C8.01668 8.52342 8.05928 8.63002 8.1362 8.70959L11.0593 11.6298Z" fill="#E66B1E" stroke="#E66B1E" stroke-width="0.2"/>
<path fill-rule="evenodd" clip-rule="evenodd" d="M2.34418 11.0328V8.43391C2.34418 8.32197 2.29971 8.21461 2.22055 8.13546C2.1414 8.0563 2.03404 8.01183 1.92209 8.01183C1.81014 8.01183 1.70278 8.0563 1.62363 8.13546C1.54447 8.21461 1.5 8.32197 1.5 8.43391V12.052C1.5 12.1639 1.54447 12.2713 1.62363 12.3504C1.70278 12.4296 1.81014 12.4741 1.92209 12.4741H5.53968C5.65163 12.4741 5.75899 12.4296 5.83815 12.3504C5.9173 12.2713 5.96177 12.1639 5.96177 12.052C5.96177 11.94 5.9173 11.8327 5.83815 11.7535C5.75899 11.6744 5.65163 11.6299 5.53968 11.6299H2.94073L5.86385 8.70686C5.93367 8.62607 5.97027 8.52183 5.96629 8.41513C5.96231 8.30843 5.91804 8.20721 5.84239 8.13185C5.76675 8.05649 5.66535 8.0126 5.55864 8.00903C5.45192 8.00545 5.34782 8.04245 5.26729 8.11257L2.34418 11.0328Z" fill="#E66B1E" stroke="#E66B1E" stroke-width="0.2"/>
<path fill-rule="evenodd" clip-rule="evenodd" d="M11.0586 2.34416L8.16142 5.24244C8.12221 5.28165 8.09111 5.32819 8.06989 5.37942C8.04867 5.43065 8.03775 5.48555 8.03775 5.54099C8.03775 5.59644 8.04867 5.65134 8.06989 5.70257C8.09111 5.75379 8.12221 5.80034 8.16142 5.83955C8.20063 5.87875 8.24717 5.90985 8.2984 5.93107C8.34963 5.95229 8.40453 5.96321 8.45998 5.96321C8.51543 5.96321 8.57033 5.95229 8.62156 5.93107C8.67278 5.90985 8.71933 5.87875 8.75854 5.83955L11.6558 2.94239V5.56716C11.6558 5.67911 11.7002 5.78646 11.7794 5.86562C11.8585 5.94477 11.9659 5.98924 12.0779 5.98924C12.1898 5.98924 12.2972 5.94477 12.3763 5.86562C12.4555 5.78646 12.4999 5.67911 12.4999 5.56716V1.92208C12.4999 1.81014 12.4555 1.70278 12.3763 1.62362C12.2972 1.54447 12.1898 1.5 12.0779 1.5H8.43381C8.32186 1.5 8.2145 1.54447 8.13535 1.62362C8.05619 1.70278 8.01172 1.81014 8.01172 1.92208C8.01172 2.03402 8.05619 2.14138 8.13535 2.22054C8.2145 2.29969 8.32186 2.34416 8.43381 2.34416H11.0586Z" fill="#E66B1E" stroke="#E66B1E" stroke-width="0.2"/>
<path fill-rule="evenodd" clip-rule="evenodd" d="M2.34418 2.94126L5.24141 5.83842C5.28001 5.87992 5.32658 5.91323 5.37833 5.93635C5.43008 5.95946 5.48596 5.97192 5.54264 5.97297C5.59931 5.97403 5.65561 5.96365 5.70819 5.94248C5.76077 5.9213 5.80854 5.88975 5.84866 5.8497C5.88878 5.80966 5.92042 5.76195 5.9417 5.70941C5.96298 5.65688 5.97346 5.60059 5.97251 5.54392C5.97156 5.48725 5.95921 5.43135 5.93619 5.37955C5.91317 5.32775 5.87996 5.28112 5.83852 5.24244L2.94073 2.34416H5.56557C5.67752 2.34416 5.78488 2.29969 5.86403 2.22054C5.94319 2.14138 5.98766 2.03402 5.98766 1.92208C5.98766 1.81014 5.94319 1.70278 5.86403 1.62362C5.78488 1.54447 5.67752 1.5 5.56557 1.5H1.92209C1.81014 1.5 1.70278 1.54447 1.62363 1.62362C1.54447 1.70278 1.5 1.81014 1.5 1.92208V5.56547C1.5 5.67742 1.54447 5.78478 1.62363 5.86393C1.70278 5.94309 1.81014 5.98756 1.92209 5.98756C2.03404 5.98756 2.1414 5.94309 2.22055 5.86393C2.29971 5.78478 2.34418 5.67742 2.34418 5.56547V2.94126Z" fill="#E66B1E" stroke="#E66B1E" stroke-width="0.2"/>
</svg>
