<svg width="14" height="14" viewBox="0 0 14 14" fill="none" xmlns="http://www.w3.org/2000/svg">
<path d="M8.14258 4.84719H10.8666V5.76671L13.5 3.13331L10.8667 0.5V1.41943H1.60995V4.84719H5.85742V6.37064H3.13329V5.45121L0.5 8.08452L3.13329 10.7179V9.7984H5.85742V13.5H8.14258V9.7984H12.3901V6.37064H8.14258V4.84719ZM2.37157 2.18115H11.4706L12.4228 3.13331L11.4706 4.08546H2.37157V2.18115ZM6.61914 4.84719H7.38086V6.37064H6.61914V4.84719ZM7.38086 12.7383H6.61914V9.7984H7.38086V12.7383ZM11.6284 9.03667H2.52937L1.57722 8.08452L2.52937 7.13236H11.6284V9.03667Z" fill="#619B05" stroke="#619B05" stroke-width="0.2"/>
</svg>
