<svg width="29" height="28" viewBox="0 0 29 28" fill="none" xmlns="http://www.w3.org/2000/svg">
<path d="M17.0297 20.4338L16.8764 19.9579L16.6835 20.0201L16.5883 20.1991L17.0297 20.4338ZM10.9851 20.4416L11.4266 20.2069L11.331 20.0272L11.1372 19.9653L10.9851 20.4416ZM14.0054 26.1205L13.5639 26.3553L14.0054 27.1853L14.4468 26.3553L14.0054 26.1205ZM17.1831 20.9097C21.177 19.6228 24.0738 15.9759 24.0738 11.6593H23.0738C23.0738 15.5101 20.4881 18.7941 16.8764 19.9579L17.1831 20.9097ZM24.0738 11.6593C24.0738 6.25916 19.5448 1.91113 13.9953 1.91113V2.91113C19.0259 2.91113 23.0738 6.84423 23.0738 11.6593H24.0738ZM13.9953 1.91113C8.44575 1.91113 3.91675 6.25916 3.91675 11.6593H4.91675C4.91675 6.84423 8.96466 2.91113 13.9953 2.91113V1.91113ZM3.91675 11.6593C3.91675 15.9851 6.8259 19.6383 10.833 20.9179L11.1372 19.9653C7.51356 18.8081 4.91675 15.5183 4.91675 11.6593H3.91675ZM14.4468 25.8857L11.4266 20.2069L10.5437 20.6764L13.5639 26.3553L14.4468 25.8857ZM16.5883 20.1991L13.5639 25.8857L14.4468 26.3553L17.4712 20.6686L16.5883 20.1991Z" fill="#3C3D3D"/>
<path d="M14.0051 15.4983C16.2005 15.4983 17.9802 13.7799 17.9802 11.6603C17.9802 9.5406 16.2005 7.82227 14.0051 7.82227C11.8098 7.82227 10.03 9.5406 10.03 11.6603C10.03 13.7799 11.8098 15.4983 14.0051 15.4983Z" fill="#FEFEFF"/>
<path d="M14.0006 7.41406C11.5772 7.41406 9.604 9.31919 9.604 11.659C9.604 13.9988 11.5772 15.9039 14.0006 15.9039C16.4239 15.9039 18.3971 13.9988 18.3971 11.659C18.3971 9.31919 16.4239 7.41406 14.0006 7.41406ZM14.0006 15.0901C12.0417 15.0901 10.4421 13.5502 10.4421 11.659C10.4421 9.76773 12.037 8.2279 14.0006 8.2279C15.9642 8.2279 17.5542 9.76773 17.5542 11.659C17.5542 13.5502 15.9594 15.0901 14.0006 15.0901Z" fill="#2A54C3"/>
</svg>
