<svg width="29" height="28" viewBox="0 0 29 28" fill="none" xmlns="http://www.w3.org/2000/svg">
<path d="M21.786 6.29004V22.1018C21.786 22.8791 21.1795 23.508 20.4299 23.508H8.3584V6.29004H21.786Z" fill="#FEFEFF"/>
<path opacity="0.2" d="M8.44744 23.5042H7.09139C6.71661 23.5042 6.37589 23.3487 6.13398 23.0908C5.88867 22.8364 5.73535 22.4831 5.73535 22.0979V20.3701H7.09139V22.0979C7.09139 22.4866 7.24131 22.8399 7.49003 23.0908C7.73535 23.3452 8.07606 23.5042 8.44744 23.5042Z" fill="white"/>
<path d="M21.9872 4.51041H19.2036C19.1934 3.92741 18.7368 3.45747 18.1746 3.45747H17.5477C17.4319 2.3586 16.529 1.5 15.4387 1.5H14.7061C13.6158 1.5 12.7129 2.3586 12.5971 3.45747H11.9702C11.408 3.45747 10.948 3.92741 10.9412 4.51041H8.15758C7.32282 4.51041 6.6448 5.21355 6.6448 6.07922V20.1278H5.73509C5.60562 20.1278 5.5 20.2373 5.5 20.3716V22.0994C5.5 22.8697 5.99744 23.488 6.6448 23.6824V24.7777C6.6448 25.6434 7.32282 26.3465 8.15758 26.3465H21.9872C22.822 26.3465 23.5 25.6434 23.5 24.7777V6.07922C23.5 5.21355 22.822 4.51041 21.9872 4.51041ZM14.7061 1.9876H15.4387C16.27 1.9876 16.9617 2.62714 17.0741 3.45747H13.0673C13.1831 2.62714 13.8714 1.9876 14.7027 1.9876H14.7061ZM11.408 4.52808C11.408 4.20654 11.6601 3.94508 11.9702 3.94508H18.1746C18.4847 3.94508 18.7368 4.20654 18.7368 4.52808V6.53149C18.7368 6.85302 18.4847 7.11449 18.1746 7.11449H11.9702C11.6601 7.11449 11.408 6.85302 11.408 6.53149V4.52808ZM11.9702 7.60209H18.1746C18.7436 7.60209 19.207 7.12156 19.207 6.53502H21.5511V22.1029C21.5511 22.7425 21.0468 23.2654 20.4301 23.2654C19.8135 23.2654 19.3092 22.7531 19.3092 22.1029V20.3751C19.3092 20.2409 19.2036 20.1313 19.0741 20.1313H8.59369V6.53502H10.9378C10.9378 7.12509 11.4012 7.60209 11.9702 7.60209ZM7.11499 6.07922C7.11499 5.48208 7.58177 4.99801 8.15758 4.99801H10.9378V6.04742H8.3586C8.22913 6.04742 8.1235 6.15695 8.1235 6.29122V20.1313H7.11158V6.08275L7.11499 6.07922ZM5.97018 22.0994V20.6119H18.839V22.0994C18.839 22.5411 19.0026 22.9545 19.299 23.2619H7.08773C6.47103 23.2619 5.96678 22.7495 5.96678 22.0994H5.97018ZM23.0298 24.7777C23.0298 25.3748 22.563 25.8589 21.9872 25.8589H8.15758C7.58177 25.8589 7.11499 25.3748 7.11499 24.7777V23.7495H20.4301C21.3058 23.7495 22.0213 23.011 22.0213 22.0994V6.28768C22.0213 6.15342 21.9157 6.04388 21.7862 6.04388H19.207V4.99448H21.9872C22.563 4.99448 23.0298 5.47855 23.0298 6.07568V24.7742V24.7777Z" fill="#3C3D3D" stroke="#3C3D3D" stroke-width="0.3"/>
<path d="M10.0925 9.66827H20.055C20.1845 9.66827 20.2901 9.55873 20.2901 9.42447C20.2901 9.2902 20.1845 9.18066 20.055 9.18066H10.0925C9.96304 9.18066 9.85742 9.2902 9.85742 9.42447C9.85742 9.55873 9.96304 9.66827 10.0925 9.66827Z" fill="#179AAF" stroke="#179AAF" stroke-width="0.3"/>
<path d="M10.0925 15.0921H20.055C20.1845 15.0921 20.2901 14.9826 20.2901 14.8483C20.2901 14.714 20.1845 14.6045 20.055 14.6045H10.0925C9.96304 14.6045 9.85742 14.714 9.85742 14.8483C9.85742 14.9826 9.96304 15.0921 10.0925 15.0921Z" fill="#179AAF" stroke="#179AAF" stroke-width="0.3"/>
<path d="M18.9725 17.4697H11.1736C11.0441 17.4697 10.9385 17.5793 10.9385 17.7135C10.9385 17.8478 11.0441 17.9573 11.1736 17.9573H18.9725C19.102 17.9573 19.2076 17.8478 19.2076 17.7135C19.2076 17.5793 19.102 17.4697 18.9725 17.4697Z" fill="#179AAF" stroke="#179AAF" stroke-width="0.3"/>
<path d="M10.0925 12.3148H12.1334C12.2629 12.3148 12.3685 12.2052 12.3685 12.0709C12.3685 11.9367 12.2629 11.8271 12.1334 11.8271H10.0925C9.96304 11.8271 9.85742 11.9367 9.85742 12.0709C9.85742 12.2052 9.96304 12.3148 10.0925 12.3148Z" fill="#179AAF" stroke="#179AAF" stroke-width="0.3"/>
<path d="M20.0556 11.8271H13.6638C13.5343 11.8271 13.4287 11.9367 13.4287 12.0709C13.4287 12.2052 13.5343 12.3148 13.6638 12.3148H20.0556C20.1851 12.3148 20.2907 12.2052 20.2907 12.0709C20.2907 11.9367 20.1851 11.8271 20.0556 11.8271Z" fill="#179AAF" stroke="#179AAF" stroke-width="0.3"/>
</svg>
