<svg width="28" height="28" viewBox="0 0 28 28" fill="none" xmlns="http://www.w3.org/2000/svg">
<path opacity="0.2" d="M14.6012 20.3156C11.9067 20.5505 9.21796 20.0746 6.53221 18.8879C5.88504 18.6011 5.4585 17.9422 5.4585 17.2131V8.85742H8.07659V17.2131C8.07659 17.9422 8.50313 18.6011 9.1503 18.8879C10.9712 19.6841 12.7892 20.1692 14.6042 20.3156H14.6012Z" fill="white"/>
<path d="M25.7357 19.348L24.409 20.7238L26.9271 23.3352C27.1566 23.5731 27.1566 23.9605 26.9271 24.1985L25.2857 25.9007C25.0562 26.1387 24.6826 26.1387 24.4532 25.9007L21.9351 23.2894L20.6084 24.6652C20.3083 24.9764 19.7965 24.8208 19.7053 24.3907L18.2786 17.5939C18.1962 17.1973 18.5345 16.8465 18.9169 16.9319L25.471 18.4114C25.8858 18.506 26.0358 19.0368 25.7357 19.348Z" fill="#FF914C"/>
<path d="M13.1366 3.53411L0.487339 8.97948C0.337313 9.04354 0.240234 9.19607 0.240234 9.36386C0.240234 9.53164 0.337313 9.68417 0.487339 9.74824L5.0587 11.7159V17.2131C5.0587 18.0917 5.55879 18.9123 6.37363 19.2723C10.339 21.0264 14.3779 21.2735 18.3639 19.9678L19.3111 24.4828C19.3847 24.8305 19.6347 25.1082 19.9612 25.2088C20.2907 25.3095 20.6467 25.2149 20.8879 24.9648L21.9322 23.8818L24.1678 26.2003C24.5532 26.5999 25.1798 26.5999 25.5681 26.2003L27.2095 24.498C27.5978 24.0953 27.5949 23.4456 27.2095 23.0459L24.9739 20.7274L26.0182 19.6445C26.2594 19.3943 26.3506 19.0252 26.2535 18.6835C26.1564 18.3419 25.8887 18.0826 25.5534 18.0063L21.5144 17.0941V11.7159L23.8178 10.7244V13.833C23.8178 14.0618 23.9972 14.2479 24.2178 14.2479C24.4385 14.2479 24.6179 14.0618 24.6179 13.833V10.3797L26.0917 9.74518C26.2417 9.68112 26.3388 9.52859 26.3388 9.36081C26.3388 9.19302 26.2417 9.04049 26.0917 8.97643C6.82665 0.681767 16.04 4.65064 13.4425 3.53106C13.3454 3.48835 13.2336 3.48835 13.1366 3.53106V3.53411ZM17.8844 17.6829L18.1933 19.1564C14.3632 20.4163 10.5067 20.1966 6.68545 18.5066C6.16772 18.2778 5.8559 17.7592 5.8559 17.2101V12.0576L13.1336 15.1906C13.1836 15.2119 13.2336 15.2211 13.2866 15.2211C13.3395 15.2211 13.3895 15.2119 13.4395 15.1906L20.7114 12.0576V16.9111L18.9964 16.5237C18.6875 16.4535 18.361 16.5511 18.1345 16.786C17.9079 17.0209 17.8138 17.3535 17.8815 17.6799L17.8844 17.6829ZM25.3857 18.8178C25.4534 18.833 25.4798 18.8849 25.4887 18.9154C25.4975 18.9459 25.5034 19.0038 25.4534 19.0527L24.1267 20.4285C23.9707 20.5902 23.9707 20.8525 24.1267 21.0142L26.6447 23.6255C26.7183 23.7018 26.7183 23.8238 26.6447 23.9032L25.0033 25.6054C24.9297 25.6817 24.8091 25.6817 24.7356 25.6054L22.2175 22.9941C22.0616 22.8324 21.8086 22.8324 21.6527 22.9941L20.326 24.3699C20.276 24.4218 20.2201 24.4157 20.1907 24.4065C20.1613 24.3974 20.1113 24.3729 20.0966 24.3028L18.6698 17.506C18.6551 17.4389 18.6875 17.3962 18.7051 17.3748C18.7257 17.3535 18.764 17.3229 18.8287 17.3382C19.6582 17.5243 25.1327 18.7598 25.3827 18.8178H25.3857ZM24.8944 9.36081C22.8676 10.2333 15.7458 13.3022 13.2895 14.3608C12.104 13.8483 17.5873 16.2125 1.6846 9.36081L13.2895 4.36388C13.5837 4.48895 24.6003 9.23268 24.8944 9.36081Z" fill="#3C3D3D"/>
<path d="M25.7357 19.348L24.409 20.7238L26.9271 23.3352C27.1566 23.5731 27.1566 23.9605 26.9271 24.1985L25.2857 25.9007C25.0562 26.1387 24.6826 26.1387 24.4532 25.9007L21.9351 23.2894L20.6084 24.6652C20.3083 24.9764 19.7965 24.8208 19.7053 24.3907L18.2786 17.5939C18.1962 17.1973 18.5345 16.8465 18.9169 16.9319L25.471 18.4114C25.8858 18.506 26.0358 19.0368 25.7357 19.348Z" stroke="#E66B1E" stroke-width="0.8"/>
</svg>
