<svg width="29" height="28" viewBox="0 0 29 28" fill="none" xmlns="http://www.w3.org/2000/svg">
<path d="M22.2862 6.29004V22.1018C22.2862 22.8791 21.6798 23.508 20.9302 23.508H8.85864V6.29004H22.2862Z" fill="#FEFEFF"/>
<path opacity="0.2" d="M8.9472 23.5042H7.59115C7.21636 23.5042 6.87565 23.3487 6.63374 23.0908C6.38842 22.8364 6.23511 22.4831 6.23511 22.0979V20.3701H7.59115V22.0979C7.59115 22.4866 7.74107 22.8399 7.98979 23.0908C8.23511 23.3452 8.57582 23.5042 8.9472 23.5042Z" fill="white"/>
<path d="M22.4872 4.51041H19.7036C19.6934 3.92741 19.2368 3.45747 18.6746 3.45747H18.0477C17.9319 2.3586 17.029 1.5 15.9387 1.5H15.2061C14.1158 1.5 13.2129 2.3586 13.0971 3.45747H12.4702C11.908 3.45747 11.448 3.92741 11.4412 4.51041H8.65758C7.82282 4.51041 7.1448 5.21355 7.1448 6.07922V20.1278H6.23509C6.10562 20.1278 6 20.2373 6 20.3716V22.0994C6 22.8697 6.49744 23.488 7.1448 23.6824V24.7777C7.1448 25.6434 7.82282 26.3465 8.65758 26.3465H22.4872C23.322 26.3465 24 25.6434 24 24.7777V6.07922C24 5.21355 23.322 4.51041 22.4872 4.51041ZM15.2061 1.9876H15.9387C16.77 1.9876 17.4617 2.62714 17.5741 3.45747H13.5673C13.6831 2.62714 14.3714 1.9876 15.2027 1.9876H15.2061ZM11.908 4.52808C11.908 4.20654 12.1601 3.94508 12.4702 3.94508H18.6746C18.9847 3.94508 19.2368 4.20654 19.2368 4.52808V6.53149C19.2368 6.85302 18.9847 7.11449 18.6746 7.11449H12.4702C12.1601 7.11449 11.908 6.85302 11.908 6.53149V4.52808ZM12.4702 7.60209H18.6746C19.2436 7.60209 19.707 7.12156 19.707 6.53502H22.0511V22.1029C22.0511 22.7425 21.5468 23.2654 20.9301 23.2654C20.3135 23.2654 19.8092 22.7531 19.8092 22.1029V20.3751C19.8092 20.2409 19.7036 20.1313 19.5741 20.1313H9.09369V6.53502H11.4378C11.4378 7.12509 11.9012 7.60209 12.4702 7.60209ZM7.61499 6.07922C7.61499 5.48208 8.08177 4.99801 8.65758 4.99801H11.4378V6.04742H8.8586C8.72913 6.04742 8.6235 6.15695 8.6235 6.29122V20.1313H7.61158V6.08275L7.61499 6.07922ZM6.47018 22.0994V20.6119H19.339V22.0994C19.339 22.5411 19.5026 22.9545 19.799 23.2619H7.58773C6.97103 23.2619 6.46678 22.7495 6.46678 22.0994H6.47018ZM23.5298 24.7777C23.5298 25.3748 23.063 25.8589 22.4872 25.8589H8.65758C8.08177 25.8589 7.61499 25.3748 7.61499 24.7777V23.7495H20.9301C21.8058 23.7495 22.5213 23.011 22.5213 22.0994V6.28768C22.5213 6.15342 22.4157 6.04388 22.2862 6.04388H19.707V4.99448H22.4872C23.063 4.99448 23.5298 5.47855 23.5298 6.07568V24.7742V24.7777Z" fill="#3C3D3D" stroke="#3C3D3D" stroke-width="0.3"/>
<path d="M10.5925 9.66827H20.555C20.6845 9.66827 20.7901 9.55873 20.7901 9.42447C20.7901 9.2902 20.6845 9.18066 20.555 9.18066H10.5925C10.463 9.18066 10.3574 9.2902 10.3574 9.42447C10.3574 9.55873 10.463 9.66827 10.5925 9.66827Z" fill="#2A54C3" stroke="#2A54C3" stroke-width="0.3"/>
<path d="M10.5925 15.0921H20.555C20.6845 15.0921 20.7901 14.9826 20.7901 14.8483C20.7901 14.714 20.6845 14.6045 20.555 14.6045H10.5925C10.463 14.6045 10.3574 14.714 10.3574 14.8483C10.3574 14.9826 10.463 15.0921 10.5925 15.0921Z" fill="#2A54C3" stroke="#2A54C3" stroke-width="0.3"/>
<path d="M19.4723 17.4697H11.6733C11.5439 17.4697 11.4382 17.5793 11.4382 17.7135C11.4382 17.8478 11.5439 17.9573 11.6733 17.9573H19.4723C19.6018 17.9573 19.7074 17.8478 19.7074 17.7135C19.7074 17.5793 19.6018 17.4697 19.4723 17.4697Z" fill="#2A54C3" stroke="#2A54C3" stroke-width="0.3"/>
<path d="M10.5925 12.3148H12.6334C12.7629 12.3148 12.8685 12.2052 12.8685 12.0709C12.8685 11.9367 12.7629 11.8271 12.6334 11.8271H10.5925C10.463 11.8271 10.3574 11.9367 10.3574 12.0709C10.3574 12.2052 10.463 12.3148 10.5925 12.3148Z" fill="#2A54C3" stroke="#2A54C3" stroke-width="0.3"/>
<path d="M20.5559 11.8271H14.164C14.0346 11.8271 13.929 11.9367 13.929 12.0709C13.929 12.2052 14.0346 12.3148 14.164 12.3148H20.5559C20.6853 12.3148 20.791 12.2052 20.791 12.0709C20.791 11.9367 20.6853 11.8271 20.5559 11.8271Z" fill="#2A54C3" stroke="#2A54C3" stroke-width="0.3"/>
</svg>
