<svg width="29" height="28" viewBox="0 0 29 28" fill="none" xmlns="http://www.w3.org/2000/svg">
<ellipse cx="12.7468" cy="12.2404" rx="5.27" ry="5.09" fill="#648FFF"/>
<path d="M23.4889 6.18902V24.2783C23.4889 25.5221 22.4449 26.5302 21.1566 26.5302H4.33233C3.04409 26.5302 2 25.5221 2 24.2783V6.18902C2 4.94832 3.04409 3.94336 4.33233 3.94336H21.1566C22.4449 3.94336 23.4889 4.95142 23.4889 6.18902Z" stroke="#3C3D3D" stroke-miterlimit="10"/>
<path d="M15.4208 15.8083C14.6209 16.3883 13.6282 16.7357 12.5487 16.7357C11.4115 16.7357 10.3642 16.3511 9.54176 15.706C9.52891 15.6811 9.51285 15.6563 9.5 15.6284C10.1971 14.6266 11.238 14 12.3977 14C13.6346 14 14.7269 14.7103 15.4208 15.8114V15.8083Z" fill="#FEFEFF"/>
<path d="M21.8411 1.48697V2.44851C21.8411 2.71836 22.0659 2.93548 22.3454 2.93548C22.6249 2.93548 22.8498 2.71836 22.8498 2.44851V1.48697C22.8498 1.21712 22.6249 1 22.3454 1C22.0659 1 21.8411 1.21712 21.8411 1.48697Z" fill="#3C3D3D"/>
<path d="M26.8492 1.14288C26.6532 0.953675 26.3351 0.953675 26.136 1.14288L24.2148 2.99772C24.0189 3.18692 24.0189 3.494 24.2148 3.6863C24.4108 3.87861 24.7289 3.87551 24.928 3.6863L26.8492 1.83147C27.0451 1.64226 27.0451 1.33519 26.8492 1.14288Z" fill="#3C3D3D"/>
<path d="M25.4966 5.00391C25.2171 5.00391 24.9922 5.22103 24.9922 5.49088C24.9922 5.76073 25.2171 5.97785 25.4966 5.97785H26.4957C26.7752 5.97785 27 5.76073 27 5.49088C27 5.22103 26.7752 5.00391 26.4957 5.00391H25.4966Z" fill="#3C3D3D"/>
<path d="M5.45042 20.3392H20.0387C20.3182 20.3392 20.5431 20.1221 20.5431 19.8522C20.5431 19.5824 20.3182 19.3652 20.0387 19.3652H5.45042C5.17093 19.3652 4.94604 19.5824 4.94604 19.8522C4.94604 20.1221 5.17093 20.3392 5.45042 20.3392Z" fill="#648FFF"/>
<path d="M17.5137 22.3535H7.97557C7.69607 22.3535 7.47119 22.5706 7.47119 22.8405C7.47119 23.1103 7.69607 23.3275 7.97557 23.3275H17.5137C17.7932 23.3275 18.0181 23.1103 18.0181 22.8405C18.0181 22.5706 17.7932 22.3535 17.5137 22.3535Z" fill="#648FFF"/>
<path d="M14.3748 11.8822C14.3748 12.7537 13.6455 13.4578 12.7428 13.4578C11.8401 13.4578 11.114 12.7537 11.114 11.8822C11.114 11.0106 11.8433 10.3096 12.7428 10.3096C13.6423 10.3096 14.3748 11.0137 14.3748 11.8822Z" fill="#FEFEFF"/>
<path d="M17.5168 12.2404C17.5168 14.7591 15.3977 16.8304 12.7468 16.8304C10.0959 16.8304 7.97681 14.7591 7.97681 12.2404C7.97681 9.72164 10.0959 7.65039 12.7468 7.65039C15.3977 7.65039 17.5168 9.72164 17.5168 12.2404Z" stroke="#648FFF"/>
</svg>
