<svg width="28" height="28" viewBox="0 0 28 28" fill="none" xmlns="http://www.w3.org/2000/svg">
<path fill-rule="evenodd" clip-rule="evenodd" d="M4.19988 8.78924L4.19989 8.78922C6.08421 5.22294 9.84115 3 14.0043 3C20.0871 3 25 7.76888 25 13.5989C25 19.429 20.0871 24.1978 14.0043 24.1978C7.92137 24.1978 3 19.4203 3 13.5989C3 13.4339 3.13861 13.2747 3.35403 13.2747C3.56945 13.2747 3.70806 13.4339 3.70806 13.5989C3.70806 19.0995 8.35309 23.5494 14.0043 23.5494C19.6559 23.5494 24.2919 19.1077 24.2919 13.5989C24.2919 8.09016 19.6559 3.64839 14.0043 3.64839C10.1228 3.64839 6.60485 5.72292 4.83423 9.07085L4.83414 9.07101C4.74988 9.23047 4.53932 9.30757 4.34961 9.21412C4.17155 9.1264 4.12017 8.94008 4.19988 8.78924Z" fill="#3C3D3D"/>
<path d="M4.19989 8.78922L3.97884 8.67242L3.97816 8.67373L4.19989 8.78922ZM4.19988 8.78924L4.42092 8.90604L4.42161 8.90472L4.19988 8.78924ZM4.83423 9.07085L4.61323 8.95397L4.61305 8.9543L4.83423 9.07085ZM4.83414 9.07101L5.05518 9.18781L5.05531 9.18755L4.83414 9.07101ZM4.34961 9.21412L4.23913 9.43838H4.23913L4.34961 9.21412ZM3.97816 8.67373L3.97815 8.67375L4.42161 8.90472L4.42162 8.9047L3.97816 8.67373ZM14.0043 2.75C9.75189 2.75 5.90804 5.02123 3.97885 8.67243L4.42093 8.90601C6.26039 5.42465 9.93041 3.25 14.0043 3.25V2.75ZM25.25 13.5989C25.25 7.62273 20.2169 2.75 14.0043 2.75V3.25C19.9572 3.25 24.75 7.91503 24.75 13.5989H25.25ZM14.0043 24.4478C20.2169 24.4478 25.25 19.5751 25.25 13.5989H24.75C24.75 19.2828 19.9572 23.9478 14.0043 23.9478V24.4478ZM2.75 13.5989C2.75 19.5665 7.79164 24.4478 14.0043 24.4478V23.9478C8.0511 23.9478 3.25 19.274 3.25 13.5989H2.75ZM3.35403 13.0247C3.00503 13.0247 2.75 13.2914 2.75 13.5989H3.25C3.25 13.5764 3.27218 13.5247 3.35403 13.5247V13.0247ZM3.95806 13.5989C3.95806 13.2914 3.70303 13.0247 3.35403 13.0247V13.5247C3.43588 13.5247 3.45806 13.5764 3.45806 13.5989H3.95806ZM14.0043 23.2994C8.48239 23.2994 3.95806 18.9528 3.95806 13.5989H3.45806C3.45806 19.2462 8.22378 23.7994 14.0043 23.7994V23.2994ZM24.0419 13.5989C24.0419 18.9611 19.5265 23.2994 14.0043 23.2994V23.7994C19.7854 23.7994 24.5419 19.2542 24.5419 13.5989H24.0419ZM14.0043 3.89839C19.5265 3.89839 24.0419 8.2367 24.0419 13.5989H24.5419C24.5419 7.94363 19.7854 3.39839 14.0043 3.39839V3.89839ZM5.05522 9.18773C6.781 5.92459 10.2121 3.89839 14.0043 3.89839V3.39839C10.0334 3.39839 6.42869 5.52125 4.61323 8.95397L5.05522 9.18773ZM5.05531 9.18755L5.0554 9.1874L4.61305 8.9543L4.61297 8.95446L5.05531 9.18755ZM4.23913 9.43838C4.54743 9.59025 4.90626 9.46963 5.05518 9.18781L4.6131 8.95421C4.5935 8.9913 4.53121 9.02489 4.46008 8.98985L4.23913 9.43838ZM3.97884 8.67243C3.83235 8.94967 3.93662 9.28936 4.23913 9.43838L4.46008 8.98985C4.42749 8.97379 4.41842 8.9559 4.41556 8.94721C4.4123 8.9373 4.41181 8.92327 4.42092 8.90604L3.97884 8.67243Z" fill="#3C3D3D"/>
<path d="M14.7651 14.9692C16.1631 14.6411 17.1981 13.418 17.1981 11.9712C17.1981 10.2709 15.7615 8.88379 14.0004 8.88379C12.2394 8.88379 10.8027 10.2709 10.8027 11.9712C10.8027 12.3814 11.1426 12.7095 11.5674 12.7095C11.9922 12.7095 12.332 12.3814 12.332 11.9712C12.332 11.0838 13.0813 10.3529 14.0081 10.3529C14.935 10.3529 15.6842 11.0763 15.6842 11.9712C15.6842 12.8662 14.935 13.5895 14.0081 13.5895C13.5833 13.5895 13.2435 13.9177 13.2435 14.3278V15.5061C13.2435 15.9163 13.5833 16.2445 14.0081 16.2445C14.4329 16.2445 14.7728 15.9163 14.7728 15.5061V14.9692H14.7651Z" fill="#179AAF"/>
<path d="M14.0015 16.7959C13.5767 16.7959 13.2368 17.124 13.2368 17.5342V17.8549C13.2368 18.265 13.5767 18.5932 14.0015 18.5932C14.4263 18.5932 14.7662 18.265 14.7662 17.8549V17.5342C14.7662 17.124 14.4263 16.7959 14.0015 16.7959Z" fill="#179AAF"/>
</svg>
