<svg width="29" height="28" viewBox="0 0 29 28" fill="none" xmlns="http://www.w3.org/2000/svg">
<ellipse cx="13.2466" cy="12.2404" rx="5.27" ry="5.09" fill="#8FD890"/>
<path d="M23.9889 6.18902V24.2783C23.9889 25.5221 22.9449 26.5302 21.6566 26.5302H4.83233C3.54409 26.5302 2.5 25.5221 2.5 24.2783V6.18902C2.5 4.94832 3.54409 3.94336 4.83233 3.94336H21.6566C22.9449 3.94336 23.9889 4.95142 23.9889 6.18902Z" stroke="#3C3D3D" stroke-miterlimit="10"/>
<path d="M15.9208 15.8083C15.1209 16.3883 14.1282 16.7357 13.0487 16.7357C11.9115 16.7357 10.8642 16.3511 10.0418 15.706C10.0289 15.6811 10.0129 15.6563 10 15.6284C10.6971 14.6266 11.738 14 12.8977 14C14.1346 14 15.2269 14.7103 15.9208 15.8114V15.8083Z" fill="#FEFEFF"/>
<path d="M22.3408 1.48697V2.44851C22.3408 2.71836 22.5657 2.93548 22.8452 2.93548C23.1247 2.93548 23.3496 2.71836 23.3496 2.44851V1.48697C23.3496 1.21712 23.1247 1 22.8452 1C22.5657 1 22.3408 1.21712 22.3408 1.48697Z" fill="#3C3D3D"/>
<path d="M27.3492 1.14288C27.1532 0.953675 26.8351 0.953675 26.636 1.14288L24.7148 2.99772C24.5189 3.18692 24.5189 3.494 24.7148 3.6863C24.9108 3.87861 25.2289 3.87551 25.428 3.6863L27.3492 1.83147C27.5451 1.64226 27.5451 1.33519 27.3492 1.14288Z" fill="#3C3D3D"/>
<path d="M25.9966 5.00391C25.7171 5.00391 25.4922 5.22103 25.4922 5.49088C25.4922 5.76073 25.7171 5.97785 25.9966 5.97785H26.9957C27.2752 5.97785 27.5 5.76073 27.5 5.49088C27.5 5.22103 27.2752 5.00391 26.9957 5.00391H25.9966Z" fill="#3C3D3D"/>
<path d="M5.95018 20.3392H20.5385C20.818 20.3392 21.0429 20.1221 21.0429 19.8522C21.0429 19.5824 20.818 19.3652 20.5385 19.3652H5.95018C5.67068 19.3652 5.4458 19.5824 5.4458 19.8522C5.4458 20.1221 5.67068 20.3392 5.95018 20.3392Z" fill="#8FD890"/>
<path d="M18.0137 22.3535H8.47557C8.19607 22.3535 7.97119 22.5706 7.97119 22.8405C7.97119 23.1103 8.19607 23.3275 8.47557 23.3275H18.0137C18.2932 23.3275 18.5181 23.1103 18.5181 22.8405C18.5181 22.5706 18.2932 22.3535 18.0137 22.3535Z" fill="#8FD890"/>
<path d="M14.875 11.8822C14.875 12.7537 14.1458 13.4578 13.243 13.4578C12.3403 13.4578 11.6143 12.7537 11.6143 11.8822C11.6143 11.0106 12.3435 10.3096 13.243 10.3096C14.1426 10.3096 14.875 11.0137 14.875 11.8822Z" fill="#FEFEFF"/>
<path d="M18.0166 12.2404C18.0166 14.7591 15.8975 16.8304 13.2466 16.8304C10.5956 16.8304 8.47656 14.7591 8.47656 12.2404C8.47656 9.72164 10.5956 7.65039 13.2466 7.65039C15.8975 7.65039 18.0166 9.72164 18.0166 12.2404Z" stroke="#8FD890"/>
</svg>
