<svg width="157" height="24" viewBox="0 0 157 24" fill="none" xmlns="http://www.w3.org/2000/svg">
<path d="M55.9821 10.2853H48.497C44.9998 10.2853 43.4102 12.2464 42.9748 13.6498L40.0098 23.2516H41.164C42.7605 23.2516 43.9285 22.8257 44.1981 22.0461C44.8132 20.049 46.0434 16.0727 46.6586 14.0696C46.9005 13.29 47.8059 12.8761 48.4348 12.8761C50.446 12.8761 53.9156 12.8761 53.9156 12.8761C54.8693 12.8761 56.0374 13.0081 55.5121 14.5314C55.2149 15.437 54.2819 15.8928 52.7061 15.8928H50.2525C48.6352 15.8928 47.4534 16.3246 47.2046 17.1283L46.783 18.4777H52.1186C55.4084 18.4777 58.3043 17.8779 59.3687 14.4295C60.2672 11.5148 58.6845 10.2793 55.9821 10.2793V10.2853Z" fill="white"/>
<path d="M70.3742 9.92188H69.6139C65.3012 9.92188 61.0299 12.4048 59.9172 16.0212L59.4541 17.5265C58.3345 21.1429 61.0714 23.6258 65.3842 23.6258H66.1444C70.4571 23.6258 74.7284 21.1429 75.8411 17.5265L76.3042 16.0212C77.4239 12.4048 74.6869 9.92188 70.3673 9.92188H70.3742ZM72.2679 16.5489L72.1021 17.0827C71.3003 19.6856 68.9021 21.0949 66.9254 21.0949H66.1859C64.2161 21.0949 62.6818 19.6856 63.4904 17.0827L63.6563 16.5489C64.458 13.9461 66.8563 12.5367 68.826 12.5367H69.5656C71.5353 12.5367 73.0627 13.9461 72.261 16.5489H72.2679Z" fill="white"/>
<path d="M119.79 9.92188H119.03C114.717 9.92188 110.446 12.4048 109.333 16.0212L108.87 17.5265C107.751 21.1429 110.488 23.6258 114.8 23.6258H115.561C119.873 23.6258 124.145 21.1429 125.257 17.5265L125.72 16.0212C126.84 12.4048 124.103 9.92188 119.79 9.92188ZM121.684 16.5489L121.518 17.0827C120.71 19.6856 118.318 21.0949 116.342 21.0949H115.595C113.632 21.0949 112.098 19.6856 112.907 17.0827L113.073 16.5489C113.874 13.9461 116.273 12.5367 118.242 12.5367H118.982C120.952 12.5367 122.479 13.9461 121.677 16.5489H121.684Z" fill="white"/>
<path d="M24.9779 7.80273H21.1075C19.5248 7.80273 18.2393 8.27053 17.5136 8.80429L8.15549 14.6577C8.90192 12.2348 9.64145 9.85383 10.2704 7.80873H7.56802C5.89545 7.80873 4.66522 8.25254 4.37494 9.06817L0 23.2459H2.69546C4.40258 23.2459 5.64664 22.7901 5.90927 21.9445C6.44837 20.1993 7.04275 18.2741 7.64404 16.331L13.0557 22.2024C13.581 22.7721 14.1684 23.2459 16.0829 23.2459H20.2159L13.1594 15.6533L24.9779 7.80873V7.80273Z" fill="white"/>
<path d="M36.2145 15.3531H31.024C29.621 15.3531 28.9575 15.1132 29.3169 14.0636C29.614 13.164 30.4987 12.8702 32.0676 12.8702H38.6266C40.2438 12.8702 41.4257 12.4383 41.6745 11.6347L42.0892 10.2793H32.662C29.3791 10.2793 26.4624 10.939 25.4603 14.1656C24.7691 16.4086 26.027 17.9559 28.9575 17.9439H34.141C35.5855 17.9439 36.1937 18.2138 35.8274 19.2993C35.5302 20.2049 34.5972 20.6547 33.0214 20.6547H26.3864C24.7691 20.6547 23.5873 21.0865 23.3385 21.8902L22.9169 23.2456H32.4201C35.9726 23.2456 38.6473 22.5139 39.6702 19.1974C40.4788 16.5825 38.7648 15.3471 36.1937 15.3471L36.2145 15.3531Z" fill="white"/>
<path d="M92.0192 16.9274H90.2913C89.4965 16.9274 88.757 17.2452 88.4667 17.713C88.1488 18.2168 87.6235 18.8945 87.1812 19.2484L85.1354 16.9094C89.4343 15.536 89.925 12.9691 88.4874 11.8476C87.2296 10.8641 84.4443 10.7681 82.2948 11.8236C79.6477 13.1251 80.2145 15.0082 81.2304 16.4176L80.8158 16.5795C78.5419 17.4492 77.1458 18.3607 76.6827 20.022C76.192 21.8032 77.9268 23.5425 81.0024 23.5425C83.3453 23.5425 84.776 22.9607 86.1928 22.223L87.0775 23.2606H90.6162L88.5289 20.8257C89.7591 20.022 91.5423 17.9829 92.0261 16.9214L92.0192 16.9274ZM85.0801 12.6873C87.4715 12.6873 86.49 14.3005 85.5432 14.7623C85.2667 14.9003 84.3751 15.3141 83.8983 15.482C83.5389 15.0682 83.3177 14.6664 83.2209 14.5045C82.6127 13.5089 83.7946 12.6873 85.0801 12.6873ZM81.5138 21.6593C79.6477 21.6593 79.1985 20.5558 79.3644 20.04C79.6408 19.1404 80.9885 18.5407 82.516 17.9229L84.8935 20.7057C84.1471 21.2035 82.5367 21.6533 81.5138 21.6533V21.6593Z" fill="white"/>
<path d="M98.5674 14.0636C98.8093 13.284 99.7216 12.8702 100.344 12.8702C102.362 12.8702 107.469 12.8702 107.469 12.8702C108.651 12.8702 109.467 12.2884 109.633 11.7606L110.089 10.2793H100.399C96.9017 10.2793 95.3121 12.2404 94.8767 13.6438L93.0451 19.4672C92.3678 21.6503 93.5566 23.2576 96.5423 23.2456H104.643C105.824 23.2456 106.64 22.6638 106.806 22.1301L107.262 20.6547H98.5536C97.2197 20.6487 96.5354 20.4268 96.9017 19.3653C96.9017 19.3653 97.9523 16.0607 98.5674 14.0576V14.0636Z" fill="white"/>
<path d="M133.693 5.17313C133.382 5.0172 133.244 5.0172 132.995 5.25109C131.986 6.19268 130.189 7.97389 129.284 8.8615C130.507 10.3908 131.426 12.8557 130.894 16.0103C130.818 16.2262 130.97 16.3702 131.198 16.1783C133.493 14.1632 136.05 11.9501 138.352 10.4448C137.439 8.02787 135.421 6.01875 133.707 5.16713L133.693 5.17313Z" fill="white"/>
<path d="M119.47 4.64584C119.345 4.70581 119.345 4.86174 119.47 4.86174C122.725 4.79577 124.895 5.44349 126.706 6.58298C128.766 5.12563 132.242 2.83464 133.935 2.08497C134.606 1.94703 135.801 1.82709 136.61 1.8031C135.905 2.45681 134.91 3.41638 134.35 3.95015C134.205 4.08809 134.35 4.20803 134.516 4.15406C139.14 2.57675 145.277 1.37129 150.281 1.05943C138.863 -1.00966 127.805 0.585635 119.477 4.65184L119.47 4.64584Z" fill="white"/>
<path d="M151.942 1.38477C147.491 1.84656 141.541 3.54381 138.507 4.91121C138.085 5.10312 138.161 5.23506 138.486 5.36101C139.474 5.74484 141.23 6.69242 142.225 8.02383C148.756 4.64133 154.313 2.96807 156.2 2.41631C154.797 2.02048 153.311 1.66664 151.949 1.38477H151.942Z" fill="white"/>
</svg>
