<svg width="200" height="43" viewBox="0 0 200 43" fill="none" xmlns="http://www.w3.org/2000/svg">
<path d="M73.2444 18.551H63.7764C60.581 18.3163 57.6223 20.4288 56.7938 23.3629L53.0067 37.3291H54.4268C56.4388 37.3291 57.9773 36.7423 58.214 35.5686C59.0425 32.6346 60.581 26.8838 61.2911 24.0671C61.6462 23.1282 62.4746 22.424 63.5397 22.3066C66.1434 22.3066 70.5223 22.3066 70.5223 22.3066C71.7058 22.3066 73.2444 22.5413 72.5343 24.6539C72.1792 25.9449 70.9957 26.6491 68.9838 26.6491H65.9067C63.8948 26.6491 62.3562 27.2359 62.0012 28.4095L61.4095 30.4047H68.1554C72.2976 30.4047 75.9664 29.5831 77.3866 24.5365C78.6885 20.4288 76.6765 18.551 73.2444 18.551Z" fill="#00509D"/>
<path d="M91.4695 18.0801H90.5227C85.0786 18.0801 79.6345 21.7183 78.2144 26.8823L77.6226 29.1122C76.2024 34.3935 79.6345 37.9144 85.0786 37.9144H86.0254C91.4695 37.9144 96.9135 34.2762 98.3337 29.1122L98.9255 26.8823C100.346 21.7183 96.9135 18.0801 91.4695 18.0801ZM93.8365 27.7038L93.5998 28.5254C92.5346 32.281 89.5759 34.2762 87.0906 34.2762H86.1438C83.6584 34.2762 81.7648 32.281 82.7116 28.5254L82.9483 27.7038C84.0135 23.9482 86.9722 21.9531 89.4575 21.9531H90.4043C92.8897 21.8357 94.9016 23.9482 93.8365 27.7038Z" fill="#00509D"/>
<path d="M153.959 18.0801H153.012C147.568 18.0801 142.124 21.7183 140.704 26.8823L140.112 29.1122C138.692 34.3935 142.124 37.9144 147.568 37.9144H148.515C153.959 37.9144 159.403 34.2762 160.823 29.1122L161.415 26.8823C162.953 21.7183 159.521 18.0801 153.959 18.0801ZM156.444 27.7038L156.207 28.5254C155.142 32.281 152.184 34.2762 149.698 34.2762H148.751C146.266 34.2762 144.373 32.281 145.319 28.5254L145.556 27.7038C146.621 23.9482 149.58 21.9531 152.065 21.9531H153.012C155.497 21.8357 157.391 23.9482 156.444 27.7038Z" fill="#00509D"/>
<path d="M33.9522 15.0293H29.0999C27.443 15.0293 25.9044 15.4987 24.6026 16.4377L12.7677 24.8878C13.7145 21.3669 14.6613 17.9634 15.4897 15.0293H11.9392C9.80894 15.0293 8.2704 15.6161 7.91535 16.9071L2.35294 37.3283H5.78507C7.91535 37.3283 9.57224 36.6241 9.80894 35.4505C10.519 32.8685 11.2291 30.1691 12.0576 27.3524L18.9218 35.8026C19.6319 36.6241 20.342 37.3283 22.709 37.3283H27.9164L19.0402 26.2961L33.9522 15.0293Z" fill="#00509D"/>
<path d="M48.1544 25.9447H41.6452C39.8699 25.9447 39.0415 25.5926 39.5149 24.0668C39.8699 22.7759 41.0534 22.3064 42.947 22.3064H51.2315C53.2434 22.3064 54.7819 21.7196 55.137 20.546L55.6104 18.5508H43.6571C39.5149 18.5508 35.8461 19.4897 34.5442 24.1842C33.7158 27.4704 35.2543 29.7003 38.9231 29.7003H45.4324C47.2076 29.7003 48.036 30.0524 47.5626 31.6954C47.2076 32.9864 46.0241 33.6906 44.0122 33.6906H35.6094C33.5974 33.6906 32.0589 34.2774 31.7038 35.4511L31.3488 37.3289H43.4204C47.9177 37.3289 51.3498 36.2726 52.6517 31.4607C53.5984 27.7051 51.4682 25.9447 48.1544 25.9447Z" fill="#00509D"/>
<path d="M118.808 28.2913H116.56C115.613 28.2913 114.785 28.6434 114.193 29.4649C113.719 30.2865 113.246 30.9906 112.536 31.6948L109.932 28.2913C115.376 26.2961 115.968 22.5405 114.193 21.0148C112.654 19.6064 109.104 19.4891 106.382 21.0148C103.068 22.8926 103.778 25.5919 105.08 27.7045L104.607 27.9392C101.766 28.9955 99.9909 30.2865 99.3992 32.7511C98.8074 35.3331 100.938 37.7977 104.843 37.7977C107.21 37.7977 109.459 37.2109 111.471 35.9199L112.654 37.4456H117.152L114.548 33.9247C116.323 32.2816 117.743 30.4038 118.808 28.2913ZM110.051 22.071C113.128 22.071 111.826 24.4183 110.642 25.1225C110.287 25.3572 109.222 25.944 108.512 26.1788C108.157 25.7093 107.92 25.2399 107.684 24.7704C106.974 23.2447 108.394 22.071 110.051 22.071ZM105.553 35.0983C103.186 35.0983 102.595 33.4553 102.831 32.7511C103.186 31.4601 104.843 30.6386 106.855 29.6996L109.814 33.69C108.512 34.5115 107.092 34.981 105.553 35.0983Z" fill="#00509D"/>
<path d="M127.092 24.0671C127.447 23.1282 128.276 22.424 129.341 22.3066H138.336C139.519 22.424 140.584 21.7198 141.058 20.6635L141.649 18.551H129.341C126.146 18.3163 123.187 20.4288 122.358 23.3629L119.991 31.813C119.163 34.9818 120.583 37.3291 124.37 37.3291H134.667C135.85 37.4465 136.915 36.7423 137.389 35.686L137.981 33.5735H126.974C125.317 33.5735 124.37 33.2214 124.844 31.6957C125.081 31.813 126.382 27.0011 127.092 24.0671Z" fill="#00509D"/>
<path d="M171.596 11.2319C171.241 10.9972 171.005 10.9972 170.768 11.3493C169.466 12.7577 167.217 15.3397 166.034 16.6306C168.046 19.6821 168.756 23.4377 168.046 26.9586C167.928 27.3107 168.164 27.428 168.401 27.1933C171.241 24.2592 174.2 21.4425 177.396 18.8605C176.449 15.6917 174.437 12.9924 171.596 11.2319Z" fill="#F77E0B"/>
<path d="M153.607 10.4115C153.488 10.5288 153.488 10.7635 153.607 10.7635C156.802 10.5288 160.116 11.3504 162.72 13.2282C165.56 10.8809 168.637 8.65101 171.832 6.7732C172.898 6.53847 174.081 6.42111 175.265 6.42111C174.318 7.36002 173.134 8.76837 172.424 9.47255C172.188 9.70728 172.424 9.82464 172.661 9.82464C179.052 7.36001 185.798 5.95166 192.662 5.36484C178.105 2.3134 164.14 4.5433 153.607 10.4115Z" fill="#00509D"/>
<path d="M194.673 5.7168C188.755 6.53834 183.075 8.29878 177.631 10.8808C177.039 11.1155 177.157 11.3502 177.631 11.5849C179.524 12.4065 181.181 13.8148 182.365 15.4579C187.927 12.1718 193.845 9.47241 199.999 7.35988C198.342 6.6557 196.448 6.18625 194.673 5.7168Z" fill="#0097E0"/>
</svg>
