<svg width="16" height="16" viewBox="0 0 16 16" fill="none" xmlns="http://www.w3.org/2000/svg">
<path d="M8 14C6.325 14 4.90625 13.4188 3.74375 12.2563C2.58125 11.0938 2 9.675 2 8C2 6.325 2.58125 4.90625 3.74375 3.74375C4.90625 2.58125 6.325 2 8 2C8.8625 2 9.6875 2.17812 10.475 2.53438C11.2625 2.89062 11.9375 3.4 12.5 4.0625V2H14V7.25H8.75V5.75H11.9C11.5 5.05 10.9531 4.5 10.2594 4.1C9.56563 3.7 8.8125 3.5 8 3.5C6.75 3.5 5.6875 3.9375 4.8125 4.8125C3.9375 5.6875 3.5 6.75 3.5 8C3.5 9.25 3.9375 10.3125 4.8125 11.1875C5.6875 12.0625 6.75 12.5 8 12.5C8.9625 12.5 9.83125 12.225 10.6063 11.675C11.3813 11.125 11.925 10.4 12.2375 9.5H13.8125C13.4625 10.825 12.75 11.9063 11.675 12.7438C10.6 13.5813 9.375 14 8 14Z" fill="#666666"/>
</svg>
