<svg width="101" height="92" viewBox="0 0 101 92" fill="none" xmlns="http://www.w3.org/2000/svg">
<path d="M70.6633 10.7072C68.2483 10.7257 65.8571 11.1818 63.605 12.0534C65.7043 17.7047 66.1883 23.8288 65.003 29.7398C63.8177 35.6507 61.01 41.115 56.8945 45.52C59.2888 47.7862 62.2024 49.4313 65.3801 50.31C68.5579 51.1893 71.9025 51.276 75.1211 50.5626C78.3402 49.8492 81.335 48.3574 83.8437 46.2177C86.3525 44.0785 88.298 41.3566 89.5106 38.2908C90.7228 35.225 91.1658 31.9085 90.7988 28.6319C90.4328 25.3554 89.2686 22.2187 87.4082 19.4965C85.5483 16.7743 83.0492 14.5496 80.13 13.0173C77.2109 11.485 73.96 10.6919 70.6633 10.7072Z" fill="#CCCCCC"/>
<path d="M75.7086 56.082H69.3359C73.4847 61.9883 75.7101 69.031 75.7086 76.2487V86.3317C75.6924 88.0537 75.3783 89.7597 74.7809 91.3737H95.8752C97.2122 91.3737 98.4952 90.8427 99.4402 89.8967C100.385 88.9517 100.917 87.6687 100.917 86.3317V81.2903C100.909 74.6071 98.2502 68.2002 93.5252 63.4741C88.7987 58.7485 82.3918 56.0901 75.7086 56.082Z" fill="#CCCCCC"/>
<path d="M32.8516 46C45.3817 46 55.5391 35.8425 55.5391 23.3125C55.5391 10.7825 45.3817 0.625 32.8516 0.625C20.3216 0.625 10.1641 10.7825 10.1641 23.3125C10.1641 35.8425 20.3216 46 32.8516 46Z" fill="#CCCCCC"/>
<path d="M40.4153 51.043H25.2903C18.6071 51.0511 12.1999 53.7095 7.47413 58.4351C2.74843 63.1611 0.0900313 69.5681 0.0820312 76.2513V86.3343C0.0820312 87.6713 0.613132 88.9543 1.55863 89.8993C2.50413 90.8453 3.78653 91.3763 5.12363 91.3763H60.582C61.919 91.3763 63.2016 90.8453 64.1469 89.8993C65.0922 88.9543 65.6236 87.6713 65.6236 86.3343V76.2513C65.6156 69.5681 62.9571 63.1611 58.2315 58.4351C53.5055 53.7095 47.0985 51.0511 40.4153 51.043Z" fill="#CCCCCC"/>
</svg>
