<svg width="121" height="121" viewBox="0 0 121 121" fill="none" xmlns="http://www.w3.org/2000/svg">
<path d="M8.60226 95.0228C8.94748 95.3679 9.37645 95.6172 9.8471 95.7465C10.3178 95.8758 10.8139 95.8805 11.2869 95.7602L31.044 90.8824C40.4244 95.8874 51.2903 97.3575 61.6635 95.0249C72.0366 92.6923 81.2272 86.7122 87.5621 78.1732C93.8969 69.6343 96.9548 59.1044 96.1788 48.5006C95.4029 37.8968 90.8449 27.9241 83.3346 20.3983C75.8243 12.8724 65.8611 8.29384 55.2588 7.49605C44.6566 6.69826 34.1204 9.73434 25.5685 16.0515C17.0165 22.3687 11.0174 31.547 8.66342 41.9153C6.30942 52.2836 7.75704 63.1525 12.7427 72.5433L7.84601 92.3382C7.72451 92.8126 7.73045 93.3107 7.86325 93.7822C7.99604 94.2536 8.25097 94.6816 8.60226 95.0228ZM36.4512 36.4513C40.1768 32.7271 45.1772 30.5558 50.442 30.3763C55.7067 30.1967 60.8434 32.0223 64.8141 35.484C68.7848 38.9458 71.2935 43.7857 71.8333 49.0258C72.3731 54.2659 70.9037 59.5156 67.7221 63.7141L72.4676 68.4596L68.4594 72.4677L63.714 67.7222C59.5155 70.9038 54.2658 72.3732 49.0257 71.8334C43.7855 71.2936 38.9457 68.7849 35.4839 64.8142C32.0221 60.8435 30.1966 55.7069 30.3762 50.4421C30.5557 45.1773 32.7269 40.1769 36.4512 36.4513Z" fill="#CCCCCC"/>
<path d="M8.60226 95.0228C8.94748 95.3679 9.37645 95.6172 9.8471 95.7465C10.3178 95.8758 10.8139 95.8805 11.2869 95.7602L31.044 90.8824C40.4244 95.8874 51.2903 97.3575 61.6635 95.0249C72.0366 92.6923 81.2272 86.7122 87.5621 78.1732C93.8969 69.6343 96.9548 59.1044 96.1788 48.5006C95.4029 37.8968 90.8449 27.9241 83.3346 20.3983C75.8243 12.8724 65.8611 8.29384 55.2588 7.49605C44.6566 6.69826 34.1204 9.73434 25.5685 16.0515C17.0165 22.3687 11.0174 31.547 8.66342 41.9153C6.30942 52.2836 7.75704 63.1525 12.7427 72.5433L7.84601 92.3382C7.72451 92.8126 7.73045 93.3107 7.86325 93.7822C7.99604 94.2536 8.25097 94.6816 8.60226 95.0228ZM36.4512 36.4513C40.1768 32.7271 45.1772 30.5558 50.442 30.3763C55.7067 30.1967 60.8434 32.0223 64.8141 35.484C68.7848 38.9458 71.2935 43.7857 71.8333 49.0258C72.3731 54.2659 70.9037 59.5156 67.7221 63.7141L72.4676 68.4596L68.4594 72.4677L63.714 67.7222C59.5155 70.9038 54.2658 72.3732 49.0257 71.8334C43.7855 71.2936 38.9457 68.7849 35.4839 64.8142C32.0221 60.8435 30.1966 55.7069 30.3762 50.4421C30.5557 45.1773 32.7269 40.1769 36.4512 36.4513Z" fill="#CCCCCC"/>
<path d="M99.2199 59.7438C98.9027 61.7329 98.4479 63.6975 97.8587 65.6236C95.5587 73.2404 91.41 80.1698 85.7823 85.7942C80.1546 91.4186 73.2227 95.5633 65.6046 97.8588C63.6849 98.448 61.7265 98.9028 59.7437 99.22C63.4711 105.574 69.4933 110.257 76.57 112.304C83.6467 114.351 91.239 113.607 97.783 110.223L109.807 113.192C110.28 113.312 110.777 113.307 111.247 113.178C111.718 113.049 112.147 112.799 112.492 112.454C112.836 112.105 113.085 111.672 113.214 111.199C113.343 110.726 113.349 110.227 113.229 109.751L110.261 97.7453C113.619 91.1986 114.346 83.6156 112.293 76.5503C110.24 69.4849 105.563 63.4721 99.2199 59.7438Z" fill="#CCCCCC"/>
<path d="M99.2199 59.7438C98.9027 61.7329 98.4479 63.6975 97.8587 65.6236C95.5587 73.2404 91.41 80.1698 85.7823 85.7942C80.1546 91.4186 73.2227 95.5633 65.6046 97.8588C63.6849 98.448 61.7265 98.9028 59.7437 99.22C63.4711 105.574 69.4933 110.257 76.57 112.304C83.6467 114.351 91.239 113.607 97.783 110.223L109.807 113.192C110.28 113.312 110.777 113.307 111.247 113.178C111.718 113.049 112.147 112.799 112.492 112.454C112.836 112.105 113.085 111.672 113.214 111.199C113.343 110.726 113.349 110.227 113.229 109.751L110.261 97.7453C113.619 91.1986 114.346 83.6156 112.293 76.5503C110.24 69.4849 105.563 63.4721 99.2199 59.7438Z" fill="#CCCCCC"/>
<path d="M59.6492 63.6573L55.2441 59.2522L59.2522 55.2251L63.6573 59.6303C65.7582 56.5173 66.623 52.7329 66.0827 49.0164C65.5423 45.2999 63.6357 41.9184 60.7353 39.5326C57.8349 37.1468 54.1492 35.9281 50.3982 36.1147C46.6473 36.3012 43.1007 37.8796 40.4514 40.5414C37.802 43.2033 36.2403 46.7573 36.0714 50.509C35.9025 54.2608 37.1385 57.9408 39.538 60.8299C41.9374 63.719 45.3279 65.6097 49.0469 66.1326C52.7659 66.6554 56.5462 65.7729 59.6492 63.6573Z" fill="#CCCCCC"/>
</svg>
