<svg width="18" height="18" viewBox="0 0 18 18" fill="none" xmlns="http://www.w3.org/2000/svg">
<circle cx="9.00066" cy="9.00066" r="9.00066" fill="#5B99FF"/>
<path d="M9.00405 10.5587C8.70119 10.5587 8.47621 10.4483 8.32911 10.2277C8.18633 10.0027 8.09114 9.67388 8.04355 9.24122C7.99163 8.73502 7.9462 8.23962 7.90727 7.75505C7.87265 7.27047 7.85535 6.75994 7.85535 6.22344C7.85535 5.77348 7.94837 5.42952 8.13441 5.19156C8.32045 4.94927 8.61033 4.82812 9.00405 4.82812C9.39777 4.82812 9.68549 4.94927 9.8672 5.19156C10.0532 5.42952 10.1463 5.77348 10.1463 6.22344C10.1463 6.72533 10.1268 7.22721 10.0879 7.72909C10.0489 8.23097 10.0057 8.73502 9.95806 9.24122C9.91479 9.67388 9.81961 10.0027 9.67251 10.2277C9.52973 10.4483 9.30691 10.5587 9.00405 10.5587Z" fill="white"/>
<path d="M8.3889 12.8507C8.56623 13.0276 8.78246 13.1161 9.03757 13.1161C9.28957 13.1161 9.50268 13.0276 9.67691 12.8507C9.85424 12.6706 9.94291 12.4526 9.94291 12.1966C9.94291 11.947 9.85424 11.7353 9.67691 11.5615C9.50268 11.3877 9.28957 11.3008 9.03757 11.3008C8.78246 11.3008 8.56623 11.3877 8.3889 11.5615C8.21468 11.7353 8.12756 11.947 8.12756 12.1966C8.12756 12.4526 8.21468 12.6706 8.3889 12.8507Z" fill="white"/>
</svg>
