<svg width="14" height="16" viewBox="0 0 14 16" fill="none" xmlns="http://www.w3.org/2000/svg">
<path d="M1 1.79883C1 1.24654 1.44772 0.798828 2 0.798828H8.38579C8.651 0.798828 8.90536 0.904185 9.09289 1.09172L12.7071 4.70593C12.8946 4.89347 13 5.14782 13 5.41304V14.1988C13 14.7511 12.5523 15.1988 12 15.1988H2C1.44772 15.1988 1 14.7511 1 14.1988V1.79883Z" stroke="#BABABA"/>
<path d="M13 5.59961L8.4 5.59961C8.28954 5.59961 8.2 5.51007 8.2 5.39961L8.2 0.799609" stroke="#BABABA" stroke-linecap="round"/>
<rect x="3.3999" y="8" width="7.2" height="1.2" rx="0.6" fill="#BABABA"/>
<rect x="3.3999" y="10.3984" width="7.2" height="1.2" rx="0.6" fill="#BABABA"/>
</svg>
