<svg width="16" height="16" viewBox="0 0 16 16" fill="none" xmlns="http://www.w3.org/2000/svg">
<g clip-path="url(#clip0_2383_11046)">
<path d="M7.52772 1.85869C7.68337 1.41091 8.31663 1.41091 8.47228 1.85869L9.76668 5.5825C9.83534 5.78004 10.0197 5.91397 10.2288 5.91823L14.1703 5.99856C14.6443 6.00822 14.84 6.61049 14.4622 6.89689L11.3206 9.27865C11.154 9.405 11.0836 9.62171 11.1441 9.82188L12.2857 13.5953C12.423 14.0491 11.9107 14.4213 11.5216 14.1505L8.28559 11.8987C8.11393 11.7793 7.88607 11.7793 7.71441 11.8987L4.47842 14.1505C4.0893 14.4213 3.57698 14.0491 3.71425 13.5953L4.85587 9.82188C4.91643 9.62171 4.84601 9.405 4.67936 9.27865L1.5378 6.89689C1.16003 6.61049 1.35572 6.00822 1.82969 5.99856L5.77123 5.91823C5.98031 5.91397 6.16466 5.78004 6.23332 5.5825L7.52772 1.85869Z" fill="white"/>
</g>
<defs>
<clipPath id="clip0_2383_11046">
<rect width="16" height="16" fill="white"/>
</clipPath>
</defs>
</svg>
