<svg width="16" height="16" viewBox="0 0 16 16" fill="none" xmlns="http://www.w3.org/2000/svg">
<path d="M3 1.29883H9.38574C9.48517 1.29883 9.58156 1.32847 9.66309 1.38281L9.73926 1.44531L13.3535 5.05957C13.4473 5.15334 13.5 5.28049 13.5 5.41309V14.1992C13.4998 14.4752 13.276 14.6992 13 14.6992H3C2.72399 14.6992 2.50021 14.4752 2.5 14.1992V1.79883C2.5 1.52269 2.72386 1.29883 3 1.29883Z" fill="white" stroke="white"/>
<path d="M14 5.59961L9.4 5.59961C9.28954 5.59961 9.2 5.51007 9.2 5.39961L9.2 0.799609" stroke="#101924" stroke-linecap="round"/>
<rect x="4.40002" y="8" width="7.2" height="1.2" rx="0.6" fill="#101924"/>
<rect x="4.40002" y="10.3984" width="7.2" height="1.2" rx="0.6" fill="#101924"/>
</svg>
