<svg width="117" height="30" viewBox="0 0 117 30" fill="none" xmlns="http://www.w3.org/2000/svg">
<path d="M41.7408 12.0601H36.1606C33.5534 12.0601 32.3683 13.8155 32.0437 15.0716L29.8333 23.6662H30.6937C31.884 23.6662 32.7547 23.285 32.9557 22.5872C33.4143 20.7995 34.3314 17.2404 34.79 15.4474C34.9703 14.7495 35.6453 14.3791 36.1142 14.3791C37.6136 14.3791 40.2002 14.3791 40.2002 14.3791C40.9112 14.3791 41.782 14.4972 41.3904 15.8608C41.1689 16.6714 40.4733 17.0794 39.2985 17.0794H37.4693C36.2636 17.0794 35.3825 17.4659 35.1971 18.1852L34.8828 19.3931H38.8605C41.3131 19.3931 43.4721 18.8562 44.2656 15.7695C44.9354 13.1605 43.7555 12.0547 41.7408 12.0547V12.0601Z" fill="#00458D"/>
<path d="M52.4685 11.7324H51.9017C48.6865 11.7324 45.5022 13.9549 44.6727 17.1919L44.3275 18.5393C43.4927 21.7764 45.5332 23.9988 48.7483 23.9988H49.3151C52.5303 23.9988 55.7146 21.7764 56.5442 18.5393L56.8894 17.1919C57.7241 13.9549 55.6837 11.7324 52.4633 11.7324H52.4685ZM53.8803 17.6643L53.7566 18.1421C53.1589 20.4719 51.371 21.7334 49.8974 21.7334H49.346C47.8776 21.7334 46.7337 20.4719 47.3365 18.1421L47.4602 17.6643C48.0579 15.3345 49.8458 14.073 51.3143 14.073H51.8656C53.3341 14.073 54.4728 15.3345 53.8751 17.6643H53.8803Z" fill="#00458D"/>
<path d="M89.3042 11.7324H88.7374C85.5222 11.7324 82.3379 13.9549 81.5084 17.1919L81.1632 18.5393C80.3284 21.7764 82.3688 23.9988 85.584 23.9988H86.1508C89.366 23.9988 92.5503 21.7764 93.3798 18.5393L93.7251 17.1919C94.5598 13.9549 92.5194 11.7324 89.3042 11.7324ZM90.716 17.6643L90.5923 18.1421C89.9895 20.4719 88.2067 21.7334 86.7331 21.7334H86.1766C84.7133 21.7334 83.5694 20.4719 84.1722 18.1421L84.2959 17.6643C84.8936 15.3345 86.6815 14.073 88.15 14.073H88.7013C90.1698 14.073 91.3085 15.3345 90.7108 17.6643H90.716Z" fill="#00458D"/>
<path d="M18.6213 9.84277H15.7359C14.556 9.84277 13.5976 10.2615 13.0566 10.7393L6.08001 15.9787C6.63649 13.8099 7.18781 11.6787 7.65669 9.84814H5.64205C4.39513 9.84814 3.47797 10.2454 3.26157 10.9755L0 23.666H2.0095C3.28218 23.666 4.20964 23.258 4.40543 22.5011C4.80733 20.9389 5.25045 19.2157 5.69872 17.4764L9.73317 22.7319C10.1248 23.2419 10.5627 23.666 11.99 23.666H15.0712L9.81046 16.8698L18.6213 9.84814V9.84277Z" fill="#00458D"/>
<path d="M26.9995 16.5962H23.1299C22.0839 16.5962 21.5893 16.3815 21.8572 15.442C22.0788 14.6368 22.7383 14.3738 23.9079 14.3738H28.7977C30.0034 14.3738 30.8845 13.9873 31.07 13.2679L31.3791 12.0547H24.351C21.9036 12.0547 19.7292 12.6452 18.9821 15.5333C18.4668 17.541 19.4046 18.926 21.5893 18.9153H25.4537C26.5306 18.9153 26.984 19.1569 26.7109 20.1285C26.4893 20.9391 25.7938 21.3417 24.619 21.3417H19.6725C18.4668 21.3417 17.5857 21.7282 17.4002 22.4476L17.0859 23.6608H24.1707C26.8191 23.6608 28.8131 23.0059 29.5757 20.0373C30.1786 17.6967 28.9007 16.5908 26.984 16.5908L26.9995 16.5962Z" fill="#00458D"/>
<path d="M68.6013 18.0132H67.3131C66.7206 18.0132 66.1692 18.2977 65.9528 18.7164C65.7158 19.1673 65.3242 19.774 64.9945 20.0907L63.4693 17.9971C66.6742 16.7677 67.04 14.4701 65.9683 13.4663C65.0305 12.5859 62.9541 12.5 61.3516 13.4448C59.3782 14.6097 59.8007 16.2953 60.5581 17.5569L60.249 17.7018C58.5538 18.4802 57.513 19.2962 57.1677 20.7832C56.8019 22.3776 58.0952 23.9343 60.3881 23.9343C62.1348 23.9343 63.2014 23.4136 64.2576 22.7533L64.9172 23.682H67.5553L65.9992 21.5025C66.9164 20.7832 68.2457 18.958 68.6064 18.0078L68.6013 18.0132ZM63.4281 14.2178C65.2109 14.2178 64.4792 15.6619 63.7733 16.0752C63.5672 16.1987 62.9025 16.5691 62.547 16.7194C62.2791 16.349 62.1142 15.9894 62.0421 15.8444C61.5886 14.9533 62.4697 14.2178 63.4281 14.2178ZM60.7694 22.2487C59.3782 22.2487 59.0433 21.261 59.1669 20.7993C59.373 19.9941 60.3778 19.4572 61.5165 18.9043L63.289 21.3952C62.7325 21.8407 61.532 22.2433 60.7694 22.2433V22.2487Z" fill="#00458D"/>
<path d="M73.4857 15.442C73.6661 14.7442 74.3462 14.3738 74.8099 14.3738C76.3145 14.3738 80.1222 14.3738 80.1222 14.3738C81.0033 14.3738 81.6113 13.853 81.735 13.3806L82.075 12.0547H74.8512C72.244 12.0547 71.0589 13.8101 70.7343 15.0663L69.3688 20.2788C68.8639 22.2329 69.7501 23.6715 71.976 23.6608H78.0148C78.8959 23.6608 79.5039 23.1401 79.6276 22.6623L79.9676 21.3417H73.4754C72.481 21.3364 71.9709 21.1377 72.244 20.1876C72.244 20.1876 73.0272 17.2297 73.4857 15.4367V15.442Z" fill="#00458D"/>
<path d="M99.6709 7.4879C99.439 7.34833 99.336 7.34833 99.1505 7.55769C98.3982 8.4005 97.0585 9.99486 96.3835 10.7894C97.2955 12.1583 97.9808 14.3646 97.5841 17.1883C97.5274 17.3816 97.6408 17.5104 97.8108 17.3386C99.5215 15.5349 101.428 13.554 103.144 12.2066C102.464 10.0432 100.959 8.24482 99.6812 7.48253L99.6709 7.4879Z" fill="#F39800"/>
<path d="M89.0669 7.02039C88.9741 7.07407 88.9741 7.21364 89.0669 7.21364C91.4937 7.15459 93.1116 7.73436 94.4616 8.75432C95.9971 7.44984 98.5888 5.39918 99.8512 4.72815C100.351 4.60468 101.242 4.49732 101.845 4.47584C101.32 5.06098 100.578 5.9199 100.16 6.39767C100.052 6.52114 100.16 6.6285 100.284 6.58019C103.731 5.16834 108.307 4.08933 112.037 3.81018C103.525 1.95814 95.2808 3.38609 89.072 7.02575L89.0669 7.02039Z" fill="#00458D"/>
<path d="M113.279 4.10449C109.96 4.51785 105.524 6.03706 103.262 7.26101C102.948 7.4328 103.004 7.5509 103.247 7.66363C103.983 8.0072 105.292 8.85538 106.034 10.0471C110.903 7.01944 115.046 5.52171 116.453 5.02783C115.407 4.67352 114.299 4.3568 113.284 4.10449H113.279Z" fill="#009DE1"/>
</svg>
