<svg width="16" height="16" viewBox="0 0 16 16" fill="none" xmlns="http://www.w3.org/2000/svg">
<path fill-rule="evenodd" clip-rule="evenodd" d="M4.66691 7.18162C4.43259 6.94731 4.05269 6.94731 3.81838 7.18162L2.54558 8.45442C1.1397 9.8603 1.1397 12.1397 2.54558 13.5456C3.95147 14.9515 6.23086 14.9515 7.63675 13.5456L8.90955 12.2728C9.14386 12.0385 9.14386 11.6586 8.90955 11.4243C8.67523 11.1899 8.29533 11.1899 8.06102 11.4243L6.78822 12.6971C5.85097 13.6343 4.33137 13.6343 3.39411 12.6971C2.45685 11.7598 2.45685 10.2402 3.39411 9.30294L4.66691 8.03015C4.90122 7.79583 4.90122 7.41594 4.66691 7.18162ZM11.738 8.59583C11.5037 8.36152 11.5037 7.98162 11.738 7.74731L13.0108 6.47452C13.948 5.53726 13.948 4.01766 13.0108 3.0804C12.0735 2.14315 10.5539 2.14315 9.61665 3.0804L8.34386 4.35319C8.10955 4.58751 7.72965 4.58751 7.49533 4.35319C7.26102 4.11888 7.26102 3.73898 7.49533 3.50467L8.76813 2.23187C10.174 0.825988 12.4534 0.825989 13.8593 2.23188C15.2652 3.63776 15.2652 5.91716 13.8593 7.32304L12.5865 8.59583C12.3522 8.83015 11.9723 8.83015 11.738 8.59583Z" fill="#3169C4"/>
<rect x="5.65674" y="9.58691" width="6" height="1.2" rx="0.6" transform="rotate(-45 5.65674 9.58691)" fill="#3169C4"/>
</svg>
