<svg width="14" height="16" viewBox="0 0 14 16" fill="none" xmlns="http://www.w3.org/2000/svg">
<path d="M6.99863 6.31465C7.59978 6.31465 8.08711 5.82732 8.08711 5.22617C8.08711 4.62502 7.59978 4.1377 6.99863 4.1377C6.39748 4.1377 5.91016 4.62502 5.91016 5.22617C5.91016 5.82732 6.39748 6.31465 6.99863 6.31465Z" stroke="#2D72E2" stroke-linecap="round" stroke-linejoin="round"/>
<path d="M6.99911 14.5304C6.99974 12.6578 9.95108 8.38056 10.5259 7.26748C10.9511 6.48734 11.0962 5.58515 10.9372 4.71103C10.7782 3.83692 10.3247 3.04362 9.65207 2.46316C8.91702 1.8226 7.97499 1.46973 7 1.46973C6.02502 1.46973 5.08298 1.8226 4.34794 2.46316C3.67532 3.04362 3.22177 3.83692 3.06277 4.71103C2.90378 5.58515 3.04893 6.48734 3.47407 7.26748C4.04894 8.38056 6.99847 12.6578 6.99911 14.5304Z" stroke="#2D72E2" stroke-linecap="round" stroke-linejoin="round"/>
</svg>
