<svg width="24" height="24" viewBox="0 0 24 24" fill="none" xmlns="http://www.w3.org/2000/svg">
<g clip-path="url(#clip0_1126_13260)">
<circle cx="12" cy="12" r="11.25" stroke="#DBDBDB" stroke-width="1.5"/>
<path d="M10.6972 14.4049C10.7156 12.2834 11.4312 11.6356 12.6422 10.9717C13.4128 10.5506 14 9.96761 14 9.10931C14 8.08907 13.1193 7.45749 12.0183 7.45749C11.2518 7.45749 10.5072 7.77734 10.1669 8.47703C9.98407 8.85306 9.6587 9.19028 9.24056 9.19028H8.82906C8.37604 9.19028 8.00141 8.80771 8.12903 8.37305C8.58049 6.83541 10.1439 6 12.0183 6C14.4037 6 16 7.26316 16 9.10931C16 10.4049 15.3028 11.2794 14.1284 11.9109C13.0275 12.4939 12.6055 13.0931 12.5688 14.4049C12.5688 14.4585 12.5253 14.502 12.4716 14.502H10.7944C10.7408 14.502 10.6972 14.4585 10.6972 14.4049ZM11.7064 18C10.9908 18 10.3853 17.4818 10.4037 16.8502C10.3853 16.2186 10.9908 15.7004 11.7064 15.7004C12.4037 15.7004 13.0092 16.2186 13.0092 16.8502C13.0092 17.4818 12.4037 18 11.7064 18Z" fill="#169F19"/>
</g>
<defs>
<clipPath id="clip0_1126_13260">
<rect width="24" height="24" fill="white"/>
</clipPath>
</defs>
</svg>
