<svg width="29" height="29" viewBox="0 0 29 29" fill="none" xmlns="http://www.w3.org/2000/svg">
<path d="M17.0295 20.9338L16.8762 20.4579L16.6832 20.5201L16.5881 20.6991L17.0295 20.9338ZM10.9849 20.9416L11.4263 20.7069L11.3308 20.5272L11.137 20.4653L10.9849 20.9416ZM14.0051 26.6205L13.5637 26.8553L14.0051 27.6853L14.4466 26.8553L14.0051 26.6205ZM17.1829 21.4097C21.1768 20.1228 24.0736 16.4759 24.0736 12.1593H23.0736C23.0736 16.0101 20.4878 19.2941 16.8762 20.4579L17.1829 21.4097ZM24.0736 12.1593C24.0736 6.75916 19.5446 2.41113 13.995 2.41113V3.41113C19.0257 3.41113 23.0736 7.34423 23.0736 12.1593H24.0736ZM13.995 2.41113C8.44551 2.41113 3.9165 6.75916 3.9165 12.1593H4.9165C4.9165 7.34423 8.96442 3.41113 13.995 3.41113V2.41113ZM3.9165 12.1593C3.9165 16.4851 6.82566 20.1383 10.8328 21.4179L11.137 20.4653C7.51331 19.3081 4.9165 16.0183 4.9165 12.1593H3.9165ZM14.4466 26.3857L11.4263 20.7069L10.5434 21.1764L13.5637 26.8553L14.4466 26.3857ZM16.5881 20.6991L13.5637 26.3857L14.4466 26.8553L17.471 21.1686L16.5881 20.6991Z" fill="#3C3D3D"/>
<path d="M14.0049 15.9983C16.2003 15.9983 17.98 14.2799 17.98 12.1603C17.98 10.0406 16.2003 8.32227 14.0049 8.32227C11.8095 8.32227 10.0298 10.0406 10.0298 12.1603C10.0298 14.2799 11.8095 15.9983 14.0049 15.9983Z" fill="#FEFEFF"/>
<path d="M14.0001 7.91406C11.5767 7.91406 9.60352 9.81919 9.60352 12.159C9.60352 14.4988 11.5767 16.4039 14.0001 16.4039C16.4234 16.4039 18.3966 14.4988 18.3966 12.159C18.3966 9.81919 16.4234 7.91406 14.0001 7.91406ZM14.0001 15.5901C12.0413 15.5901 10.4416 14.0502 10.4416 12.159C10.4416 10.2677 12.0365 8.7279 14.0001 8.7279C15.9637 8.7279 17.5537 10.2677 17.5537 12.159C17.5537 14.0502 15.9589 15.5901 14.0001 15.5901Z" fill="#179AAF"/>
</svg>
