<svg width="29" height="28" viewBox="0 0 29 28" fill="none" xmlns="http://www.w3.org/2000/svg">
<path opacity="0.2" d="M15.1017 20.3156C12.4071 20.5505 9.71845 20.0746 7.0327 18.8879C6.38553 18.6011 5.95898 17.9422 5.95898 17.2131V8.85742H8.57708V17.2131C8.57708 17.9422 9.00362 18.6011 9.65079 18.8879C11.4717 19.6841 13.2896 20.1692 15.1047 20.3156H15.1017Z" fill="white"/>
<path d="M26.236 19.348L24.9093 20.7238L27.4274 23.3352C27.6568 23.5731 27.6568 23.9605 27.4274 24.1985L25.7859 25.9007C25.5565 26.1387 25.1829 26.1387 24.9534 25.9007L22.4353 23.2894L21.1086 24.6652C20.8086 24.9764 20.2967 24.8208 20.2055 24.3907L18.7788 17.5939C18.6965 17.1973 19.0348 16.8465 19.4172 16.9319L25.9712 18.4114C26.386 18.506 26.536 19.0368 26.236 19.348Z" fill="#648FFF"/>
<path d="M13.6368 3.53411L0.987583 8.97948C0.837557 9.04354 0.740479 9.19607 0.740479 9.36386C0.740479 9.53164 0.837557 9.68417 0.987583 9.74824L5.55895 11.7159V17.2131C5.55895 18.0917 6.05903 18.9123 6.87388 19.2723C10.8393 21.0264 14.8782 21.2735 18.8642 19.9678L19.8114 24.4828C19.8849 24.8305 20.135 25.1082 20.4615 25.2088C20.791 25.3095 21.1469 25.2149 21.3881 24.9648L22.4324 23.8818L24.6681 26.2003C25.0534 26.5999 25.68 26.5999 26.0683 26.2003L27.7098 24.498C28.0981 24.0953 28.0951 23.4456 27.7098 23.0459L25.4741 20.7274L26.5184 19.6445C26.7596 19.3943 26.8508 19.0252 26.7537 18.6835C26.6567 18.3419 26.389 18.0826 26.0536 18.0063L22.0147 17.0941V11.7159L24.318 10.7244V13.833C24.318 14.0618 24.4975 14.2479 24.7181 14.2479C24.9387 14.2479 25.1182 14.0618 25.1182 13.833V10.3797L26.5919 9.74518C26.742 9.68112 26.839 9.52859 26.839 9.36081C26.839 9.19302 26.742 9.04049 26.5919 8.97643C7.3269 0.681767 16.5402 4.65064 13.9427 3.53106C13.8457 3.48835 13.7339 3.48835 13.6368 3.53106V3.53411ZM18.3847 17.6829L18.6935 19.1564C14.8635 20.4163 11.0069 20.1966 7.18569 18.5066C6.66796 18.2778 6.35614 17.7592 6.35614 17.2101V12.0576L13.6339 15.1906C13.6839 15.2119 13.7339 15.2211 13.7868 15.2211C13.8398 15.2211 13.8898 15.2119 13.9398 15.1906L21.2116 12.0576V16.9111L19.4966 16.5237C19.1877 16.4535 18.8612 16.5511 18.6347 16.786C18.4082 17.0209 18.3141 17.3535 18.3817 17.6799L18.3847 17.6829ZM25.8859 18.8178C25.9536 18.833 25.9801 18.8849 25.9889 18.9154C25.9977 18.9459 26.0036 19.0038 25.9536 19.0527L24.6269 20.4285C24.471 20.5902 24.471 20.8525 24.6269 21.0142L27.145 23.6255C27.2185 23.7018 27.2185 23.8238 27.145 23.9032L25.5035 25.6054C25.43 25.6817 25.3094 25.6817 25.2358 25.6054L22.7178 22.9941C22.5618 22.8324 22.3089 22.8324 22.153 22.9941L20.8263 24.3699C20.7762 24.4218 20.7204 24.4157 20.6909 24.4065C20.6615 24.3974 20.6115 24.3729 20.5968 24.3028L19.1701 17.506C19.1554 17.4389 19.1877 17.3962 19.2054 17.3748C19.226 17.3535 19.2642 17.3229 19.3289 17.3382C20.1585 17.5243 25.633 18.7598 25.883 18.8178H25.8859ZM25.3947 9.36081C23.3679 10.2333 16.2461 13.3022 13.7898 14.3608C12.6043 13.8483 18.0876 16.2125 2.18484 9.36081L13.7898 4.36388C14.0839 4.48895 25.1005 9.23268 25.3947 9.36081Z" fill="#3C3D3D"/>
<path d="M26.236 19.348L24.9093 20.7238L27.4274 23.3352C27.6568 23.5731 27.6568 23.9605 27.4274 24.1985L25.7859 25.9007C25.5565 26.1387 25.1829 26.1387 24.9534 25.9007L22.4353 23.2894L21.1086 24.6652C20.8086 24.9764 20.2967 24.8208 20.2055 24.3907L18.7788 17.5939C18.6965 17.1973 19.0348 16.8465 19.4172 16.9319L25.9712 18.4114C26.386 18.506 26.536 19.0368 26.236 19.348Z" stroke="#2A54C3" stroke-width="0.8"/>
</svg>
