<svg width="29" height="28" viewBox="0 0 29 28" fill="none" xmlns="http://www.w3.org/2000/svg">
<path d="M24.7559 19.7109C23.4412 20.935 22.1265 22.159 20.8118 23.383V20.9596C20.8118 20.2696 21.4118 19.7109 22.1529 19.7109H24.7559Z" fill="#FEFEFF" stroke="#2A54C3" stroke-width="0.2"/>
<path d="M24.7561 5.5436V19.7118C23.4414 20.9358 22.1267 22.1598 20.812 23.3839H6.58848C5.85024 23.3839 5.25024 22.8252 5.25024 22.1352V5.5436C5.25024 4.85354 5.85024 4.29492 6.58848 4.29492H23.4179C24.1561 4.29492 24.7561 4.85354 24.7561 5.5436Z" fill="#FEFEFF" stroke="#2A54C3" stroke-width="0.2"/>
<path d="M14.0352 10.8001V12.2569C14.0352 12.5772 13.7558 12.8401 13.4088 12.8401H12.0764C11.7323 12.8401 11.45 12.58 11.45 12.2569V10.8001C11.45 10.4797 11.7294 10.2168 12.0764 10.2168H13.4088C13.7529 10.2168 14.0352 10.4769 14.0352 10.8001Z" fill="#648FFF" stroke="#2A54C3" stroke-width="0.2"/>
<path d="M18.5531 10.8001V12.2569C18.5531 12.5772 18.2737 12.8401 17.9266 12.8401H16.5942C16.2501 12.8401 15.9678 12.58 15.9678 12.2569V10.8001C15.9678 10.4797 16.2472 10.2168 16.5942 10.2168H17.9266C18.2707 10.2168 18.5531 10.4769 18.5531 10.8001Z" fill="#648FFF" stroke="#2A54C3" stroke-width="0.2"/>
<path d="M23.0736 10.8001V12.2569C23.0736 12.5772 22.7942 12.8401 22.4471 12.8401H21.1147C20.7706 12.8401 20.4883 12.58 20.4883 12.2569V10.8001C20.4883 10.4797 20.7677 10.2168 21.1147 10.2168H22.4471C22.7912 10.2168 23.0736 10.4769 23.0736 10.8001Z" fill="#648FFF" stroke="#2A54C3" stroke-width="0.2"/>
<path d="M9.51498 15.4153V16.8721C9.51498 17.1925 9.23557 17.4554 8.88851 17.4554H7.55616C7.21204 17.4554 6.92969 17.1952 6.92969 16.8721V15.4153C6.92969 15.0949 7.2091 14.832 7.55616 14.832H8.88851C9.23263 14.832 9.51498 15.0922 9.51498 15.4153Z" fill="#648FFF" stroke="#2A54C3" stroke-width="0.2"/>
<path d="M14.0352 15.4153V16.8721C14.0352 17.1925 13.7558 17.4554 13.4088 17.4554H12.0764C11.7323 17.4554 11.45 17.1952 11.45 16.8721V15.4153C11.45 15.0949 11.7294 14.832 12.0764 14.832H13.4088C13.7529 14.832 14.0352 15.0922 14.0352 15.4153Z" fill="#648FFF" stroke="#2A54C3" stroke-width="0.2"/>
<path d="M18.5531 15.4153V16.8721C18.5531 17.1925 18.2737 17.4554 17.9266 17.4554H16.5942C16.2501 17.4554 15.9678 17.1952 15.9678 16.8721V15.4153C15.9678 15.0949 16.2472 14.832 16.5942 14.832H17.9266C18.2707 14.832 18.5531 15.0922 18.5531 15.4153Z" fill="#648FFF" stroke="#2A54C3" stroke-width="0.2"/>
<path d="M23.0736 15.4153V16.8721C23.0736 17.1925 22.7942 17.4554 22.4471 17.4554H21.1147C20.7706 17.4554 20.4883 17.1952 20.4883 16.8721V15.4153C20.4883 15.0949 20.7677 14.832 21.1147 14.832H22.4471C22.7912 14.832 23.0736 15.0922 23.0736 15.4153Z" fill="#648FFF"/>
<path d="M9.51498 20.0305V21.4873C9.51498 21.8077 9.23557 22.0706 8.88851 22.0706H7.55616C7.21204 22.0706 6.92969 21.8104 6.92969 21.4873V20.0305C6.92969 19.7101 7.2091 19.4473 7.55616 19.4473H8.88851C9.23263 19.4473 9.51498 19.7074 9.51498 20.0305Z" fill="#648FFF"/>
<path d="M14.0352 20.0305V21.4873C14.0352 21.8077 13.7558 22.0706 13.4088 22.0706H12.0764C11.7323 22.0706 11.45 21.8104 11.45 21.4873V20.0305C11.45 19.7101 11.7294 19.4473 12.0764 19.4473H13.4088C13.7529 19.4473 14.0352 19.7074 14.0352 20.0305Z" fill="#648FFF" stroke="#2A54C3" stroke-width="0.2"/>
<path d="M18.5531 20.0305V21.4873C18.5531 21.8077 18.2737 22.0706 17.9266 22.0706H16.5942C16.2501 22.0706 15.9678 21.8104 15.9678 21.4873V20.0305C15.9678 19.7101 16.2472 19.4473 16.5942 19.4473H17.9266C18.2707 19.4473 18.5531 19.7074 18.5531 20.0305Z" fill="#648FFF" stroke="#2A54C3" stroke-width="0.2"/>
<path d="M10.1793 3.29177V5.15932C10.1793 5.74806 9.66759 6.22453 9.03524 6.22453C8.40288 6.22453 7.89111 5.74806 7.89111 5.15932V3.29177C7.89111 2.70303 8.40288 2.22656 9.03524 2.22656C9.66759 2.22656 10.1793 2.70303 10.1793 3.29177Z" fill="#FEFEFF" stroke="#2A54C3" stroke-width="0.2"/>
<path d="M16.1471 3.29177V5.15932C16.1471 5.74806 15.6354 6.22453 15.003 6.22453C14.3706 6.22453 13.8589 5.74806 13.8589 5.15932V3.29177C13.8589 2.70303 14.3706 2.22656 15.003 2.22656C15.6354 2.22656 16.1471 2.70303 16.1471 3.29177Z" fill="#FEFEFF" stroke="#2A54C3" stroke-width="0.2"/>
<path d="M22.1115 3.29177V5.15932C22.1115 5.74806 21.5997 6.22453 20.9674 6.22453C20.335 6.22453 19.8232 5.74806 19.8232 5.15932V3.29177C19.8232 2.70303 20.335 2.22656 20.9674 2.22656C21.5997 2.22656 22.1115 2.70303 22.1115 3.29177Z" fill="#FEFEFF" stroke="#2A54C3" stroke-width="0.2"/>
<path d="M25 5.54341C25 4.7356 24.2941 4.06744 23.4176 4.06744H22.3559V3.29249C22.3559 2.58053 21.7323 2 20.9676 2C20.2029 2 19.5794 2.58053 19.5794 3.29249V4.06744H16.3882V3.29249C16.3882 2.58053 15.7647 2 15 2C14.2353 2 13.6118 2.58053 13.6118 3.29249V4.06744H10.4206V3.29249C10.4206 2.58053 9.79706 2 9.03235 2C8.26764 2 7.64411 2.58053 7.64411 3.29249V4.06744H6.58235C5.70588 4.06744 5 4.73286 5 5.54341C5 5.87748 5 22.6635 5 23.6685C5 24.4817 5.71177 25.1417 6.58235 25.1417H23.4088C24.2824 25.1417 24.9912 24.479 24.9912 23.6685C24.9912 23.6411 24.9912 5.58174 24.9912 5.54341H25ZM20.0676 3.29249C20.0676 2.82972 20.4706 2.45456 20.9676 2.45456C21.4647 2.45456 21.8676 2.82972 21.8676 3.29249V5.16004C21.8676 5.62282 21.4647 5.99797 20.9676 5.99797C20.4706 5.99797 20.0676 5.62282 20.0676 5.16004V3.29249ZM14.1029 3.29249C14.1029 2.82972 14.5059 2.45456 15.0029 2.45456C15.5 2.45456 15.9029 2.82972 15.9029 3.29249V5.16004C15.9029 5.62282 15.5 5.99797 15.0029 5.99797C14.5059 5.99797 14.1029 5.62282 14.1029 5.16004V3.29249ZM8.13529 3.29249C8.13529 2.82972 8.53824 2.45456 9.03529 2.45456C9.53235 2.45456 9.93529 2.82972 9.93529 3.29249V5.16004C9.93529 5.62282 9.53235 5.99797 9.03529 5.99797C8.53824 5.99797 8.13529 5.62282 8.13529 5.16004V3.29249ZM5.49412 5.54341C5.49412 5.01765 5.96177 4.52201 6.59118 4.52201H7.64999V5.16004C7.64999 5.87201 8.27352 6.45253 9.03823 6.45253C9.80294 6.45253 10.4265 5.87201 10.4265 5.16004V4.52201H13.6176V5.16004C13.6176 5.87201 14.2412 6.45253 15.0059 6.45253C15.7706 6.45253 16.3941 5.87201 16.3941 5.16004V4.52201H19.5853V5.16004C19.5853 5.87201 20.2088 6.45253 20.9735 6.45253C21.7382 6.45253 22.3618 5.87201 22.3618 5.16004V4.52201H23.4206C24.0441 4.52201 24.5176 5.00943 24.5176 5.54341V8.36937H5.49999V5.54341H5.49412ZM5.49412 8.8212H24.5118V19.4843H22.15C21.2765 19.4843 20.5647 20.147 20.5647 20.9602V23.1591H6.58529C5.98235 23.1591 5.49117 22.7018 5.49117 22.1377V8.82393L5.49412 8.8212ZM24.1676 19.9388C23.0235 21.0041 22.1794 21.79 21.0559 22.836V20.9602C21.0559 20.3961 21.5471 19.9388 22.1529 19.9388H24.1676ZM24.5118 23.6685C24.5118 24.2326 24.0206 24.6899 23.4147 24.6899H6.58823C5.98235 24.6899 5.49117 24.2326 5.49117 23.6685V23.1975C5.77647 23.4521 6.16176 23.611 6.58529 23.611H20.8088C20.8706 23.611 20.9353 23.589 20.9824 23.5452C22.7412 21.9104 23.3088 21.3819 24.5118 20.2592V23.6685Z" fill="#3C3D3D" stroke="#3C3D3D" stroke-width="0.2"/>
<path d="M12.0766 13.0154H13.409C13.8884 13.0154 14.2796 12.6512 14.2796 12.2048V10.748C14.2796 10.3017 13.8884 9.9375 13.409 9.9375H12.0766C11.5972 9.9375 11.2061 10.3017 11.2061 10.748V12.2048C11.2061 12.6512 11.5972 13.0154 12.0766 13.0154ZM11.6943 10.7508C11.6943 10.5536 11.8649 10.3948 12.0766 10.3948H13.409C13.6208 10.3948 13.7913 10.5536 13.7913 10.7508V12.2076C13.7913 12.4047 13.6208 12.5636 13.409 12.5636H12.0766C11.8649 12.5636 11.6943 12.4047 11.6943 12.2076V10.7508Z" fill="#648FFF"/>
<path d="M16.5969 13.0154H17.9293C18.4087 13.0154 18.7998 12.6512 18.7998 12.2048V10.748C18.7998 10.3017 18.4087 9.9375 17.9293 9.9375H16.5969C16.1175 9.9375 15.7263 10.3017 15.7263 10.748V12.2048C15.7263 12.6512 16.1175 13.0154 16.5969 13.0154ZM16.2146 10.7508C16.2146 10.5536 16.3851 10.3948 16.5969 10.3948H17.9293C18.141 10.3948 18.3116 10.5536 18.3116 10.7508V12.2076C18.3116 12.4047 18.141 12.5636 17.9293 12.5636H16.5969C16.3851 12.5636 16.2146 12.4047 16.2146 12.2076V10.7508Z" fill="#648FFF"/>
<path d="M21.1172 13.0154H22.4495C22.9289 13.0154 23.3201 12.6512 23.3201 12.2048V10.748C23.3201 10.3017 22.9289 9.9375 22.4495 9.9375H21.1172C20.6378 9.9375 20.2466 10.3017 20.2466 10.748V12.2048C20.2466 12.6512 20.6378 13.0154 21.1172 13.0154ZM20.7348 10.7508C20.7348 10.5536 20.9054 10.3948 21.1172 10.3948H22.4495C22.6613 10.3948 22.8319 10.5536 22.8319 10.7508V12.2076C22.8319 12.4047 22.6613 12.5636 22.4495 12.5636H21.1172C20.9054 12.5636 20.7348 12.4047 20.7348 12.2076V10.7508Z" fill="#648FFF"/>
<path d="M7.55614 17.6267H8.88849C9.36791 17.6267 9.75908 17.2625 9.75908 16.8162V15.3594C9.75908 14.913 9.36791 14.5488 8.88849 14.5488H7.55614C7.07673 14.5488 6.68555 14.913 6.68555 15.3594V16.8162C6.68555 17.2625 7.07673 17.6267 7.55614 17.6267ZM7.17378 15.3621C7.17378 15.165 7.34438 15.0061 7.55614 15.0061H8.88849C9.10026 15.0061 9.27084 15.165 9.27084 15.3621V16.8189C9.27084 17.0161 9.10026 17.1749 8.88849 17.1749H7.55614C7.34438 17.1749 7.17378 17.0161 7.17378 16.8189V15.3621Z" fill="#648FFF"/>
<path d="M12.0766 17.6267H13.409C13.8884 17.6267 14.2796 17.2625 14.2796 16.8162V15.3594C14.2796 14.913 13.8884 14.5488 13.409 14.5488H12.0766C11.5972 14.5488 11.2061 14.913 11.2061 15.3594V16.8162C11.2061 17.2625 11.5972 17.6267 12.0766 17.6267ZM11.6943 15.3621C11.6943 15.165 11.8649 15.0061 12.0766 15.0061H13.409C13.6208 15.0061 13.7913 15.165 13.7913 15.3621V16.8189C13.7913 17.0161 13.6208 17.1749 13.409 17.1749H12.0766C11.8649 17.1749 11.6943 17.0161 11.6943 16.8189V15.3621Z" fill="#648FFF"/>
<path d="M16.5969 17.6267H17.9293C18.4087 17.6267 18.7998 17.2625 18.7998 16.8162V15.3594C18.7998 14.913 18.4087 14.5488 17.9293 14.5488H16.5969C16.1175 14.5488 15.7263 14.913 15.7263 15.3594V16.8162C15.7263 17.2625 16.1175 17.6267 16.5969 17.6267ZM16.2146 15.3621C16.2146 15.165 16.3851 15.0061 16.5969 15.0061H17.9293C18.141 15.0061 18.3116 15.165 18.3116 15.3621V16.8189C18.3116 17.0161 18.141 17.1749 17.9293 17.1749H16.5969C16.3851 17.1749 16.2146 17.0161 16.2146 16.8189V15.3621Z" fill="#648FFF"/>
<path d="M21.1172 17.6267H22.4495C22.9289 17.6267 23.3201 17.2625 23.3201 16.8162V15.3594C23.3201 14.913 22.9289 14.5488 22.4495 14.5488H21.1172C20.6378 14.5488 20.2466 14.913 20.2466 15.3594V16.8162C20.2466 17.2625 20.6378 17.6267 21.1172 17.6267ZM20.7348 15.3621C20.7348 15.165 20.9054 15.0061 21.1172 15.0061H22.4495C22.6613 15.0061 22.8319 15.165 22.8319 15.3621V16.8189C22.8319 17.0161 22.6613 17.1749 22.4495 17.1749H21.1172C20.9054 17.1749 20.7348 17.0161 20.7348 16.8189V15.3621Z" fill="#648FFF" stroke="#648FFF" stroke-width="0.2"/>
<path d="M7.55614 22.2449H8.88849C9.36791 22.2449 9.75908 21.8807 9.75908 21.4343V19.9775C9.75908 19.5312 9.36791 19.167 8.88849 19.167H7.55614C7.07673 19.167 6.68555 19.5312 6.68555 19.9775V21.4343C6.68555 21.8807 7.07673 22.2449 7.55614 22.2449ZM7.17378 19.9775C7.17378 19.7804 7.34438 19.6216 7.55614 19.6216H8.88849C9.10026 19.6216 9.27084 19.7804 9.27084 19.9775V21.4343C9.27084 21.6315 9.10026 21.7903 8.88849 21.7903H7.55614C7.34438 21.7903 7.17378 21.6315 7.17378 21.4343V19.9775Z" fill="#648FFF" stroke="#648FFF" stroke-width="0.2"/>
<path d="M12.0766 22.2449H13.409C13.8884 22.2449 14.2796 21.8807 14.2796 21.4343V19.9775C14.2796 19.5312 13.8884 19.167 13.409 19.167H12.0766C11.5972 19.167 11.2061 19.5312 11.2061 19.9775V21.4343C11.2061 21.8807 11.5972 22.2449 12.0766 22.2449ZM11.6943 19.9775C11.6943 19.7804 11.8649 19.6216 12.0766 19.6216H13.409C13.6208 19.6216 13.7913 19.7804 13.7913 19.9775V21.4343C13.7913 21.6315 13.6208 21.7903 13.409 21.7903H12.0766C11.8649 21.7903 11.6943 21.6315 11.6943 21.4343V19.9775Z" fill="#648FFF"/>
<path d="M16.5969 22.2449H17.9293C18.4087 22.2449 18.7998 21.8807 18.7998 21.4343V19.9775C18.7998 19.5312 18.4087 19.167 17.9293 19.167H16.5969C16.1175 19.167 15.7263 19.5312 15.7263 19.9775V21.4343C15.7263 21.8807 16.1175 22.2449 16.5969 22.2449ZM16.2146 19.9775C16.2146 19.7804 16.3851 19.6216 16.5969 19.6216H17.9293C18.141 19.6216 18.3116 19.7804 18.3116 19.9775V21.4343C18.3116 21.6315 18.141 21.7903 17.9293 21.7903H16.5969C16.3851 21.7903 16.2146 21.6315 16.2146 21.4343V19.9775Z" fill="#648FFF"/>
</svg>
